<?xml version="1.0" standalone="no"?>
<!DOCTYPE svg PUBLIC "-//W3C//DTD SVG 1.1//EN" "http://www.w3.org/Graphics/SVG/1.1/DTD/svg11.dtd" >
<svg>
<metadata>
Created by FontForge 20110222 at Fri Aug 15 03:41:26 2014
 By deploy user
Copyright (c) 2008 by Dino dos Santos _DSType. All rights reserved.
</metadata>
<defs>
<font id="PreloSlab-Medium" horiz-adv-x="550" >
  <font-face 
    font-family="PreloSlab-Medium"
    font-weight="400"
    font-stretch="normal"
    units-per-em="1000"
    panose-1="2 0 5 3 0 0 0 2 0 4"
    ascent="750"
    descent="-250"
    x-height="500"
    cap-height="680"
    bbox="-50 -210 1065 910"
    underline-thickness="50"
    underline-position="-50"
    unicode-range="U+0020-2122"
  />
<missing-glyph horiz-adv-x="590" 
d="M520 500v-500h-450v500h450zM81 485v-469l206 233zM509 18v465l-205 -234zM296 259l202 229h-405zM95 12h401l-200 228z" />
    <glyph glyph-name=".notdef" horiz-adv-x="590" 
d="M520 500v-500h-450v500h450zM81 485v-469l206 233zM509 18v465l-205 -234zM296 259l202 229h-405zM95 12h401l-200 228z" />
    <glyph glyph-name=".null" horiz-adv-x="0" 
 />
    <glyph glyph-name="nonmarkingreturn" horiz-adv-x="180" 
 />
    <glyph glyph-name="space" unicode=" " horiz-adv-x="180" 
 />
    <glyph glyph-name="space" unicode="&#xa0;" horiz-adv-x="180" 
 />
    <glyph glyph-name="numbersign" unicode="#" horiz-adv-x="613" 
d="M263 500l-13 -115h140l13 115h65l-13 -115h100l-6 -60h-100l-16 -150h100l-6 -60h-100l-12 -115h-65l12 115h-140l-12 -115h-65l12 115h-100l6 60h100l16 150h-100l6 60h100l13 115h65zM228 175h140l16 150h-140z" />
    <glyph glyph-name="dollar" unicode="$" horiz-adv-x="620" 
d="M140 170v-78q56 -13 95.5 -17.5t74.5 -4.5q39 0 67 9.5t45 25t25 35t8 40.5q0 31 -16.5 51.5t-41.5 34t-55 22.5t-57 17q-42 11 -80 28t-67 42t-46 58t-17 77q0 46 16.5 79t46 54.5t69 32.5t85.5 13v91h40v-91q51 -2 101 -9.5t107 -24.5v-145h-75v81q-53 11 -87.5 15
t-67.5 4q-38 0 -63.5 -8t-41.5 -21.5t-23 -31.5t-7 -37q0 -29 16 -50t40.5 -36t54.5 -24.5t59 -16.5q41 -9 79 -24t67 -38.5t46.5 -56t17.5 -76.5q0 -48 -16.5 -84.5t-46.5 -61t-71 -38t-89 -15.5v-91h-40v90q-54 2 -111.5 9.5t-115.5 25.5v145h75z" />
    <glyph glyph-name="percent" unicode="%" horiz-adv-x="760" 
d="M225 0h-60l370 680h60zM181 396q-67 0 -101.5 36.5t-34.5 102.5t34.5 103t101.5 37q66 0 101 -37t35 -103t-35 -102.5t-101 -36.5zM181 441q39 0 59 24.5t20 69.5t-20 69.5t-59 24.5t-59.5 -24.5t-20.5 -69.5t20.5 -69.5t59.5 -24.5zM579 5q-67 0 -101.5 36.5
t-34.5 102.5t34.5 103t101.5 37q66 0 101 -37t35 -103t-35 -102.5t-101 -36.5zM579 50q39 0 59 24.5t20 69.5t-20 69.5t-59 24.5t-59.5 -24.5t-20.5 -69.5t20.5 -69.5t59.5 -24.5z" />
    <glyph glyph-name="ampersand" unicode="&#x26;" horiz-adv-x="705" 
d="M500 534q0 -20 -7 -41.5t-24.5 -44t-48 -45t-77.5 -45.5l175 -172q52 67 67 164h85q-8 -54 -30 -113.5t-64 -110.5l84 -86l-59 -64l-88 91q-42 -35 -98.5 -56t-129.5 -21q-60 0 -104 13.5t-72.5 38t-42.5 58t-14 74.5q0 27 7.5 52t26 49t50.5 47.5t81 47.5
q-14 16 -28.5 33.5t-26.5 37t-19.5 40.5t-7.5 45q0 42 16.5 73t43 51t60.5 30t70 10q81 0 128 -40.5t47 -115.5zM295 67q42 0 84.5 13.5t77.5 45.5l-193 197q-51 -24 -84 -56t-33 -80q0 -20 7 -41t24.5 -38.5t46 -29t70.5 -11.5zM222 531q0 -36 20 -64.5t49 -59.5
q53 27 88 58t35 72q0 28 -10 46t-24.5 27.5t-30.5 13t-27 3.5q-31 0 -50.5 -10t-30.5 -25t-15 -31.5t-4 -29.5z" />
    <glyph glyph-name="quotesingle" unicode="'" horiz-adv-x="200" 
d="M145 680l-10 -150h-70l-10 150h90z" />
    <glyph glyph-name="parenleft" unicode="(" horiz-adv-x="330" 
d="M62 340q0 126 44 250t128 230h61q-75 -124 -109 -241.5t-34 -238.5q0 -120 34 -236.5t109 -243.5h-61q-83 106 -127.5 231t-44.5 249z" />
    <glyph glyph-name="parenright" unicode=")" horiz-adv-x="330" 
d="M267 340q0 -124 -44 -249t-127 -231h-61q74 127 108 243.5t34 236.5q0 121 -34 238.5t-108 241.5h61q84 -106 127.5 -230t43.5 -250z" />
    <glyph glyph-name="asterisk" unicode="*" horiz-adv-x="410" 
d="M178 680h53l-6 -127l132 40l16 -52l-136 -20l89 -108l-42 -32l-80 121l-79 -121l-42 32l89 108l-136 20l16 52l133 -40z" />
    <glyph glyph-name="plus" unicode="+" horiz-adv-x="500" 
d="M287 302h158v-75h-158v-157h-75v157h-157v75h157v158h75v-158z" />
    <glyph glyph-name="comma" unicode="," horiz-adv-x="200" 
d="M70 -130l20 130h-35v130h90v-130l-45 -130h-30z" />
    <glyph glyph-name="hyphen" unicode="-" horiz-adv-x="500" 
d="M445 302v-75h-390v75h390z" />
    <glyph glyph-name="period" unicode="." horiz-adv-x="200" 
d="M145 130v-130h-90v130h90z" />
    <glyph glyph-name="slash" unicode="/" horiz-adv-x="540" 
d="M125 0h-80l370 680h80z" />
    <glyph glyph-name="zero" unicode="0" horiz-adv-x="570" 
d="M285 615q-44 0 -72.5 -22t-44.5 -59t-22 -86t-6 -103t6 -104.5t22 -89.5t44.5 -62.5t72.5 -23.5t72 23.5t44.5 62.5t22.5 89.5t6 104.5t-6 103t-22.5 86t-44.5 59t-72 22zM285 -10q-72 0 -118.5 28.5t-73.5 77t-37.5 113t-10.5 136.5q0 71 10.5 134t37.5 110t73.5 74
t118.5 27t118.5 -27t73.5 -74t37.5 -110t10.5 -134q0 -72 -10.5 -136.5t-37.5 -113t-73.5 -77t-118.5 -28.5z" />
    <glyph glyph-name="one" unicode="1" horiz-adv-x="390" 
d="M350 75v-75h-330v75h120v522l-115 -9v64l162 33h43v-610h120z" />
    <glyph glyph-name="two" unicode="2" horiz-adv-x="530" 
d="M490 145v-145h-455v87q107 71 173 129t102 104.5t48 82.5t12 64q0 46 -15.5 74t-37.5 42.5t-46 19t-41 4.5q-29 0 -57 -5t-63 -20v-62h-75v120q27 12 52.5 21.5t51 15.5t52.5 9.5t59 3.5q55 0 95.5 -16.5t67 -44t39.5 -64.5t13 -78q0 -105 -76.5 -202.5t-226.5 -202.5v-2
h253v65h75z" />
    <glyph glyph-name="three" unicode="3" horiz-adv-x="520" 
d="M30 160h75v-71q58 -24 137 -24q49 0 78.5 12.5t45.5 31t21 39t5 37.5q0 54 -38.5 85.5t-123.5 31.5h-85v75h81q40 0 68.5 11t46.5 28.5t26 40t8 45.5q0 16 -5.5 36t-20 37t-40.5 28.5t-67 11.5q-36 0 -66.5 -7t-58.5 -19v-69h-75v122q54 26 107.5 37t107.5 11
q94 0 151 -45.5t57 -132.5q0 -63 -36 -103t-93 -59v-2q72 -14 110.5 -59.5t38.5 -108.5q0 -91 -60 -140.5t-178 -49.5q-60 0 -112.5 10.5t-104.5 36.5v123z" />
    <glyph glyph-name="four" unicode="4" horiz-adv-x="570" 
d="M350 270v317h-2q-46 -90 -101.5 -167t-118.5 -150h222zM350 195h-315v75q41 45 82 93t78.5 99.5t71 107t60.5 115.5h113v-415h95v-75h-95v-120h65v-75h-220v75h65v120z" />
    <glyph glyph-name="five" unicode="5" horiz-adv-x="540" 
d="M470 534h-75v66h-242l-14 -228l2 -1q26 27 62.5 45.5t87.5 18.5q96 0 150 -56t54 -159q0 -114 -65.5 -172t-179.5 -58q-57 0 -106 12t-104 38v115h75v-64q36 -16 67 -21t63 -5q73 0 114 40.5t41 109.5q0 25 -7 50t-23 45.5t-43 33.5t-67 13q-45 0 -76 -16.5t-59 -49.5
l-66 6l16 383h395v-146z" />
    <glyph glyph-name="six" unicode="6" 
d="M137 367q29 39 70.5 63.5t89.5 24.5q99 0 153.5 -60.5t54.5 -174.5q0 -54 -17 -96.5t-46.5 -72.5t-70 -45.5t-88.5 -15.5q-68 0 -114 26t-73.5 69.5t-39 99t-11.5 115.5q0 112 22.5 187t61.5 120t90.5 64t109.5 19q49 0 84.5 -7.5t70.5 -18.5v-129h-75v71
q-18 4 -34.5 6.5t-38.5 2.5q-53 0 -91 -23.5t-62.5 -60t-36 -80t-11.5 -83.5zM142 296q-2 -44 2 -85.5t18.5 -73.5t42 -52t72.5 -20q27 0 51 10t42 29.5t29 48.5t11 67q0 25 -5.5 53t-20.5 50.5t-41.5 37.5t-68.5 15t-75 -23t-57 -57z" />
    <glyph glyph-name="seven" unicode="7" horiz-adv-x="490" 
d="M455 680v-65q-38 -62 -76.5 -132.5t-72 -147.5t-60 -161t-41.5 -174h-100q11 71 37 151t60.5 159.5t74.5 154t79 133.5v2h-241v-65h-75v145h415z" />
    <glyph glyph-name="eight" unicode="8" 
d="M356 357q35 -15 64 -32.5t50 -39t33 -48.5t12 -60q0 -46 -18 -81t-50 -58.5t-76.5 -35.5t-98.5 -12q-52 0 -95.5 11t-75 33.5t-49 56t-17.5 77.5q0 34 12 61.5t33 49t50 38t63 28.5v2q-61 26 -99.5 65t-38.5 104q0 42 17.5 74.5t47.5 54.5t70.5 33.5t86.5 11.5
q45 0 84.5 -11.5t69 -33t47 -53.5t17.5 -72q0 -31 -10 -54.5t-28 -42.5t-44 -34.5t-57 -29.5v-2zM127 177q0 -23 8 -44.5t25.5 -38t46.5 -27t71 -10.5q40 0 68 9.5t44.5 25t24 36t7.5 42.5q0 31 -14.5 53t-38 37.5t-52 27.5t-55.5 23q-26 -9 -50 -21t-43 -28t-30.5 -37
t-11.5 -48zM272 622q-20 0 -42.5 -5.5t-41 -17.5t-31 -32t-12.5 -50q0 -26 11.5 -46t31 -35t44.5 -26t53 -19q25 9 46.5 20t38 25.5t26 33t9.5 42.5q0 31 -12.5 52t-32 34t-43 18.5t-45.5 5.5z" />
    <glyph glyph-name="nine" unicode="9" 
d="M413 313q-29 -40 -70.5 -64t-90.5 -24q-97 0 -152 60.5t-55 174.5q0 54 16.5 96.5t46.5 72.5t70.5 45.5t88.5 15.5q68 0 114 -26t73.5 -69.5t39 -99t11.5 -115.5q0 -113 -22.5 -188t-61.5 -120t-90.5 -63.5t-109.5 -18.5q-49 0 -85 7t-71 18v130h75v-71q19 -5 35.5 -7
t37.5 -2q53 0 91 23.5t62 60t36 80t13 83.5zM407 383q2 43 -2 85t-18.5 74.5t-42 52.5t-72.5 20q-27 0 -51 -10t-42 -29.5t-28.5 -48.5t-10.5 -67q0 -26 5.5 -53.5t20.5 -50.5t41.5 -38t68.5 -15t74.5 23t56.5 57z" />
    <glyph glyph-name="colon" unicode=":" horiz-adv-x="200" 
d="M145 130v-130h-90v130h90zM145 460v-130h-90v130h90z" />
    <glyph glyph-name="semicolon" unicode=";" horiz-adv-x="200" 
d="M145 460v-130h-90v130h90zM70 -130l20 130h-35v130h90v-130l-45 -130h-30z" />
    <glyph glyph-name="less" unicode="&#x3c;" horiz-adv-x="480" 
d="M425 465v-80l-275 -135l275 -135v-80l-370 187v55z" />
    <glyph glyph-name="equal" unicode="=" horiz-adv-x="500" 
d="M445 402v-75h-390v75h390zM445 202v-75h-390v75h390z" />
    <glyph glyph-name="greater" unicode="&#x3e;" horiz-adv-x="480" 
d="M425 277v-55l-370 -187v80l275 135l-275 135v80z" />
    <glyph glyph-name="question" unicode="?" horiz-adv-x="480" 
d="M45 651q42 17 93 28t102 11q59 0 97 -16.5t59.5 -42t30 -56.5t8.5 -60q0 -44 -13.5 -74.5t-34.5 -52.5t-44.5 -38.5t-44.5 -32t-34.5 -34t-13.5 -43.5v-30h-80v30q0 33 11.5 57t28.5 42.5t37.5 33.5t39 32t32.5 37.5t18 48.5q4 26 -1 49q-6 22 -19.5 35t-30.5 19.5
t-34.5 8.5t-31.5 2q-17 0 -42.5 -4.5t-57.5 -15.5v-75h-75v141zM255 130v-130h-90v130h90z" />
    <glyph glyph-name="at" unicode="@" horiz-adv-x="810" 
d="M262 440q36 10 76.5 15.5t72.5 5.5q35 0 62 -5.5t45 -20t27.5 -39.5t9.5 -64v-209q52 0 86.5 20t54.5 50t28 65t8 65q0 63 -24.5 114t-66.5 87t-98 55.5t-119 19.5q-75 0 -138.5 -25t-109.5 -70.5t-72 -109.5t-26 -141q0 -70 23.5 -129t65.5 -102t100 -67t127 -24l-5 -51
q-81 0 -149 28.5t-116.5 78.5t-76 118t-27.5 148q0 87 30.5 160.5t84.5 126.5t128 82.5t161 29.5q76 0 142.5 -23.5t116 -66.5t78.5 -103t29 -133q0 -53 -15.5 -100.5t-46.5 -83t-77 -56t-107 -20.5h-60v39h-1q-26 -25 -55 -35.5t-67 -10.5q-58 0 -91 31t-33 82
q0 33 12.5 56t34.5 37.5t51.5 20.5t64.5 6h84v36q0 38 -19.5 56t-68.5 18q-29 0 -75 -11v-55h-59v104zM484 249h-80q-54 0 -75 -18.5t-21 -52.5q0 -30 21 -47t59 -17q33 0 58 10.5t38 21.5v103z" />
    <glyph glyph-name="A" unicode="A" horiz-adv-x="700" 
d="M421 680l204 -605h55v-75h-235v75h77l-44 132h-255l-47 -132h74v-75h-230v75h63l187 530h-73v75h224zM355 595h-1l-111 -318h218z" />
    <glyph glyph-name="B" unicode="B" horiz-adv-x="630" 
d="M454 348q63 -14 97 -57t34 -109q0 -85 -51 -133.5t-154 -48.5h-360v75h65v530h-65v75h340q103 0 154 -47t51 -126q0 -58 -28.5 -99t-82.5 -58v-2zM180 310v-235h185q57 0 88.5 29.5t31.5 87.5q0 55 -33 86.5t-97 31.5h-175zM465 495q0 49 -29 79.5t-86 30.5h-170v-220
h170q57 0 86 28t29 82z" />
    <glyph glyph-name="C" unicode="C" horiz-adv-x="610" 
d="M570 165v-140q-64 -19 -120.5 -27t-114.5 -8q-87 0 -143.5 28t-89 76.5t-45 113t-12.5 137.5q0 71 12.5 134t45 110t89 74t143.5 27q58 0 114.5 -8t120.5 -27v-140h-75v81q-51 11 -85 15t-68 4q-59 0 -97 -22t-60.5 -59t-31 -86t-8.5 -103q0 -58 8.5 -109t31 -89
t60.5 -60t97 -22q34 0 68 3t85 15v82h75z" />
    <glyph glyph-name="D" unicode="D" horiz-adv-x="660" 
d="M327 680q84 0 139.5 -25.5t88.5 -70.5t46.5 -106.5t13.5 -132.5q0 -72 -13.5 -135t-46.5 -109.5t-88.5 -73.5t-139.5 -27h-307v75h65v530h-65v75h307zM327 75q57 0 93.5 22t57.5 59t29 86t8 103t-8 101.5t-29 83t-57.5 55.5t-93.5 20h-147v-530h147z" />
    <glyph glyph-name="E" unicode="E" horiz-adv-x="570" 
d="M525 680v-145h-75v70h-270v-215h295v-75h-295v-240h270v70h75v-145h-505v75h65v530h-65v75h505z" />
    <glyph glyph-name="F" unicode="F" horiz-adv-x="555" 
d="M515 680v-145h-75v70h-260v-235h285v-75h-285v-220h65v-75h-225v75h65v530h-65v75h495z" />
    <glyph glyph-name="G" unicode="G" horiz-adv-x="620" 
d="M145 345q0 -56 10 -106t33.5 -87.5t61 -59.5t92.5 -22q38 0 71.5 9t61.5 24v162h-130v75h225v-296q-52 -22 -107.5 -38t-127.5 -16q-84 0 -139.5 28.5t-89 77t-47.5 113t-14 136.5q0 71 12.5 134t45 110t89 74t143.5 27q58 0 114.5 -8t120.5 -27v-140h-75v81
q-51 11 -85 15t-68 4q-59 0 -97 -22t-60.5 -59t-31 -86t-8.5 -103z" />
    <glyph glyph-name="H" unicode="H" horiz-adv-x="680" 
d="M500 75v240h-320v-240h65v-75h-225v75h65v530h-65v75h225v-75h-65v-215h320v215h-65v75h225v-75h-65v-530h65v-75h-225v75h65z" />
    <glyph glyph-name="I" unicode="I" horiz-adv-x="265" 
d="M85 75v530h-65v75h225v-75h-65v-530h65v-75h-225v75h65z" />
    <glyph glyph-name="J" unicode="J" horiz-adv-x="355" 
d="M335 680v-75h-65v-435q0 -50 -11 -84.5t-31.5 -55.5t-50.5 -30.5t-67 -9.5q-26 0 -49.5 2t-43.5 5l9 75q17 -2 30.5 -3.5t28.5 -1.5q45 0 67.5 23t22.5 80v435h-65v75h225z" />
    <glyph glyph-name="K" unicode="K" horiz-adv-x="680" 
d="M245 680v-75h-65v-295l283 295h-68v75h255v-75h-73l-205 -209l221 -321h67v-75h-260v75h72l-171 254l-121 -122v-132h65v-75h-225v75h65v530h-65v75h225z" />
    <glyph glyph-name="L" unicode="L" 
d="M520 145v-145h-500v75h65v530h-65v75h225v-75h-65v-530h265v70h75z" />
    <glyph glyph-name="M" unicode="M" horiz-adv-x="840" 
d="M820 680v-75h-65v-530h65v-75h-225v75h65v430h-2l-207 -505h-62l-215 505h-2v-430h68v-75h-220v75h65v530h-65v75h180l224 -522h2l216 522h178z" />
    <glyph glyph-name="N" unicode="N" horiz-adv-x="690" 
d="M670 680v-75h-65v-605h-98l-333 507h-2v-432h68v-75h-220v75h65v530h-65v75h157l338 -520h2v445h-67v75h220z" />
    <glyph glyph-name="O" unicode="O" horiz-adv-x="670" 
d="M335 615q-61 0 -98.5 -22t-57.5 -59t-27 -86t-7 -103t7 -104.5t27 -89.5t57.5 -62.5t98.5 -23.5t98 23.5t57.5 62.5t27.5 89.5t7 104.5t-7 103t-27.5 86t-57.5 59t-98 22zM335 -10q-87 0 -143.5 28.5t-89 77t-45 113t-12.5 136.5q0 71 12.5 134t45 110t89 74t143.5 27
t143 -27t89 -74t45.5 -110t12.5 -134q0 -72 -12.5 -136.5t-45.5 -113t-89 -77t-143 -28.5z" />
    <glyph glyph-name="P" unicode="P" horiz-adv-x="620" 
d="M365 680q101 0 155.5 -55t54.5 -145q0 -94 -53.5 -147t-156.5 -53h-185v-205h65v-75h-225v75h65v530h-65v75h345zM180 355h175q57 0 89.5 31t32.5 94q0 58 -32.5 91.5t-89.5 33.5h-175v-250z" />
    <glyph glyph-name="Q" unicode="Q" horiz-adv-x="670" 
d="M45 345q0 71 12.5 134t45 110t89 74t143.5 27t143 -27t89 -74t45.5 -110t12.5 -134q0 -68 -12.5 -126t-39.5 -101t-70.5 -68t-105.5 -28q7 -14 29.5 -22.5t53.5 -13t65.5 -4.5t64.5 3v-85q-48 -6 -94 -4t-85 13t-69 31t-48 50q-80 3 -131.5 32.5t-82.5 78t-43 111.5
t-12 133zM335 615q-61 0 -98.5 -22t-57.5 -59t-27 -86t-7 -103t7 -104.5t27 -89.5t57.5 -62.5t98.5 -23.5t98 23.5t57.5 62.5t27.5 89.5t7 104.5t-7 103t-27.5 86t-57.5 59t-98 22z" />
    <glyph glyph-name="R" unicode="R" horiz-adv-x="650" 
d="M365 680q51 0 90 -15t65.5 -41.5t40.5 -64t14 -82.5q0 -72 -38.5 -123.5t-107.5 -63.5l152 -215h49v-75h-235v75h66l-136 200h-145v-200h65v-75h-225v75h65v530h-65v75h345zM180 350h170q57 0 92 32t35 95q0 60 -32.5 94t-89.5 34h-175v-255z" />
    <glyph glyph-name="S" unicode="S" horiz-adv-x="580" 
d="M120 170v-78q56 -13 95.5 -17.5t74.5 -4.5q39 0 67 9.5t45 25t25 35t8 40.5q0 31 -16.5 51.5t-41.5 34t-55 22.5t-57 17q-42 11 -80.5 28t-68.5 42t-48 58.5t-18 76.5q0 48 18.5 82.5t50.5 56t74.5 31.5t91.5 10q57 0 111.5 -8t118.5 -27v-145h-75v81q-53 11 -87.5 15
t-67.5 4q-38 0 -63.5 -8t-41.5 -21.5t-23 -31.5t-7 -37q0 -29 16.5 -50t42.5 -36t56.5 -24.5t59.5 -16.5q41 -9 79 -24t67 -38.5t46.5 -56t17.5 -76.5q0 -51 -18.5 -88.5t-51.5 -62t-78 -37t-97 -12.5q-57 0 -119 8t-126 27v145h75z" />
    <glyph glyph-name="T" unicode="T" horiz-adv-x="580" 
d="M540 680v-145h-75v70h-128v-530h65v-75h-225v75h65v530h-127v-70h-75v145h500z" />
    <glyph glyph-name="U" unicode="U" horiz-adv-x="680" 
d="M660 680v-75h-65v-365q0 -131 -67 -190.5t-188 -59.5q-122 0 -188.5 59.5t-66.5 190.5v365h-65v75h225v-75h-65v-365q0 -28 4.5 -59t21 -56.5t48.5 -42.5t88 -17q52 0 83.5 17t48 42.5t21.5 56.5t5 59v365h-65v75h225z" />
    <glyph glyph-name="V" unicode="V" horiz-adv-x="690" 
d="M670 680v-75h-53l-209 -610h-122l-216 610h-50v75h245v-75h-90l177 -512h1l167 512h-90v75h240z" />
    <glyph glyph-name="W" unicode="W" horiz-adv-x="980" 
d="M265 680v-75h-89l127 -493h1l142 568h102l147 -568h1l123 493h-89v75h230v-75h-48l-160 -610h-127l-134 512h-2l-129 -512h-128l-163 610h-49v75h245z" />
    <glyph glyph-name="X" unicode="X" horiz-adv-x="700" 
d="M670 680v-75h-61l-186 -257l198 -273h59v-75h-263v75h79l-158 226l-157 -226h74v-75h-235v75h61l200 278l-183 252h-68v75h257v-75h-63l144 -204l141 204h-69v75h230z" />
    <glyph glyph-name="Y" unicode="Y" horiz-adv-x="660" 
d="M442 75v-75h-225v75h65v145l-204 385h-58v75h250v-75h-91l157 -295h2l156 295h-90v75h236v-75h-54l-209 -385v-145h65z" />
    <glyph glyph-name="Z" unicode="Z" horiz-adv-x="560" 
d="M510 680v-70l-353 -533v-2h293v70h75v-145h-485v70l356 533v2h-266v-70h-75v145h455z" />
    <glyph glyph-name="bracketleft" unicode="[" horiz-adv-x="300" 
d="M265 -85v-55h-210v960h210v-55h-115v-850h115z" />
    <glyph glyph-name="backslash" unicode="\" horiz-adv-x="540" 
d="M45 680h80l370 -680h-80z" />
    <glyph glyph-name="bracketright" unicode="]" horiz-adv-x="300" 
d="M150 -85v850h-115v55h210v-960h-210v55h115z" />
    <glyph glyph-name="asciicircum" unicode="^" horiz-adv-x="380" 
d="M105 510h-50l105 190h59l106 -190h-50l-86 139z" />
    <glyph glyph-name="underscore" unicode="_" horiz-adv-x="500" 
d="M445 -60v-55h-390v55h390z" />
    <glyph glyph-name="grave" unicode="`" horiz-adv-x="290" 
d="M82 700h78l60 -140h-50z" />
    <glyph glyph-name="a" unicode="a" horiz-adv-x="535" 
d="M72 365v124q51 10 101 15.5t92 5.5q45 0 79.5 -7.5t58 -26.5t35.5 -50.5t12 -80.5v-270h65v-75h-155v50h-2q-33 -28 -68.5 -44t-86.5 -16q-78 0 -120 39t-42 111q0 45 18 74t47 46t67 23.5t77 6.5h110v50q0 49 -26 72t-89 23q-18 0 -41.5 -2t-56.5 -7v-61h-75zM360 235
h-97q-72 0 -102.5 -21t-30.5 -69q0 -40 28 -62.5t77 -22.5q43 0 75.5 14t49.5 28v133z" />
    <glyph glyph-name="b" unicode="b" horiz-adv-x="560" 
d="M20 700h155v-250h2q26 26 67 43t86 17q52 0 87.5 -20t57.5 -55.5t31 -83t9 -101.5t-10 -101.5t-32.5 -83t-59 -55.5t-88.5 -20q-43 0 -83.5 15.5t-69.5 41.5h-2l-16 -47h-134v75h65v550h-65v75zM420 250q0 37 -6 71t-20 59t-38.5 40t-60.5 15q-42 0 -73.5 -15t-46.5 -28
v-285q15 -12 46.5 -27t73.5 -15q36 0 60.5 15t38.5 40t20 58.5t6 71.5z" />
    <glyph glyph-name="c" unicode="c" horiz-adv-x="490" 
d="M385 365v60q-32 8 -55.5 9t-39.5 1q-39 0 -67.5 -13.5t-47 -38t-27 -58.5t-8.5 -75t8.5 -75t27 -58.5t47 -38t67.5 -13.5q26 0 60 2t93 18l17 -73q-45 -11 -84 -16.5t-86 -5.5q-69 0 -115.5 19t-75.5 53t-41.5 82t-12.5 106t12.5 106t41.5 82t75.5 53t115.5 19
q47 0 86 -6t84 -17v-122h-75z" />
    <glyph glyph-name="d" unicode="d" horiz-adv-x="560" 
d="M320 700h155v-625h65v-75h-155v50h-2q-27 -26 -67.5 -43t-85.5 -17q-53 0 -88 20t-57 55.5t-31 83t-9 101.5t10 101.5t32.5 83t58.5 55.5t89 20q43 0 82 -16t66 -42h2v173h-65v75zM140 250q0 -38 5.5 -71.5t20 -58.5t38.5 -40t61 -15q42 0 73 15t47 27v285q-16 13 -47 28
t-73 15q-37 0 -61 -15t-38.5 -40t-20 -59t-5.5 -71z" />
    <glyph glyph-name="e" unicode="e" horiz-adv-x="530" 
d="M140 235q1 -38 10.5 -69t29.5 -53.5t51.5 -35t75.5 -12.5q37 0 74 3t82 17l12 -73q-48 -13 -89.5 -17.5t-90.5 -4.5q-69 0 -117 19t-77.5 53t-42.5 82t-13 106t13 106t42 82t75.5 53t114.5 19q79 0 122 -27t61.5 -67.5t18.5 -89t-8 -91.5h-344zM285 440
q-38 0 -64.5 -11.5t-44 -31t-26 -47t-10.5 -58.5h256q5 26 3.5 52.5t-13.5 47.5t-36.5 34.5t-64.5 13.5z" />
    <glyph glyph-name="f" unicode="f" horiz-adv-x="340" 
d="M30 75h65v360h-75v59l75 6v62q0 36 7 62t24 43t45 25t69 8q19 0 38.5 -2t41.5 -6l-9 -70q-16 3 -28 4t-23 1q-44 0 -59.5 -15t-15.5 -57v-55h120v-65h-120v-360h75v-75h-230v75z" />
    <glyph glyph-name="g" unicode="g" horiz-adv-x="555" 
d="M107 -65q0 -83 145 -83q36 0 68 5.5t55.5 17.5t37.5 30t14 43q0 23 -17.5 40t-64.5 19l-180 10q-24 -17 -41 -35t-17 -47zM265 237q51 0 81.5 26t30.5 77t-30.5 79t-81.5 28q-57 0 -86 -28t-29 -79t30.5 -77t84.5 -26zM116 33q-23 13 -32 34t-4.5 44.5t21 46.5t44.5 40v2
q-38 19 -60.5 55t-22.5 85q0 84 54.5 127t148.5 43q20 0 37.5 -3t31.5 -7h176v-55h-97v-2q31 -20 40 -48.5t9 -54.5q0 -42 -15 -73t-41.5 -51.5t-62.5 -30.5t-78 -10q-15 0 -35 2.5t-37 8.5q-14 -15 -21 -30.5t-6.5 -29t9.5 -22.5t27 -10l172 -9q78 -4 113 -36.5t35 -83.5
q0 -85 -68.5 -130t-218.5 -45q-103 0 -154 31.5t-51 98.5q0 34 20.5 61t65.5 50v2z" />
    <glyph glyph-name="h" unicode="h" horiz-adv-x="590" 
d="M355 75h60v250q0 49 -22 79.5t-78 30.5q-22 0 -42.5 -6t-38.5 -14.5t-33 -18.5t-26 -19v-302h60v-75h-215v75h65v550h-65v75h155v-270h2q36 35 80 57.5t98 22.5q75 0 112.5 -43t37.5 -122v-270h65v-75h-215v75z" />
    <glyph glyph-name="i" unicode="i" horiz-adv-x="260" 
d="M20 500h155v-425h65v-75h-220v75h65v350h-65v75zM175 700v-125h-90v125h90z" />
    <glyph glyph-name="j" unicode="j" horiz-adv-x="240" 
d="M20 500h165v-573q0 -71 -31.5 -104t-113.5 -33q-18 0 -39 2t-41 5l8 70q17 -2 29 -3.5t23 -1.5q43 0 59 15.5t16 57.5v490h-75v75zM185 700v-125h-90v125h90z" />
    <glyph glyph-name="k" unicode="k" horiz-adv-x="600" 
d="M20 700h155v-443l221 168h-56v75h230v-75h-72l-138 -105l160 -245h60v-75h-230v75h57l-123 196l-109 -83v-113h65v-75h-220v75h65v550h-65v75z" />
    <glyph glyph-name="l" unicode="l" horiz-adv-x="260" 
d="M20 700h155v-625h65v-75h-220v75h65v550h-65v75z" />
    <glyph glyph-name="m" unicode="m" horiz-adv-x="890" 
d="M340 75h60v253q-2 48 -24 77.5t-76 29.5q-40 0 -71 -20t-54 -38v-302h60v-75h-215v75h65v350h-65v75h155v-70h2q26 28 61 51t80 26q25 3 48 0q83 -9 111 -85q35 39 80.5 63.5t97.5 24.5q75 0 112.5 -43t37.5 -122v-270h65v-75h-215v75h60v250q0 49 -23 79.5t-77 30.5
q-20 0 -38 -6t-34 -14.5t-30 -19l-26 -19.5q3 -23 3 -47v-254h60v-75h-210v75z" />
    <glyph glyph-name="n" unicode="n" horiz-adv-x="590" 
d="M355 75h60v250q0 49 -22 79.5t-78 30.5q-22 0 -42.5 -6t-38.5 -14.5t-33 -18.5t-26 -19v-302h60v-75h-215v75h65v350h-65v75h155v-70h2q36 35 80 57.5t98 22.5q75 0 112.5 -43t37.5 -122v-270h65v-75h-215v75z" />
    <glyph glyph-name="o" unicode="o" 
d="M275 435q-39 0 -65 -14t-41.5 -39t-22 -59t-6.5 -73t6.5 -73t22 -59t41.5 -39t65 -14t65 14t41.5 39t22 59t6.5 73t-6.5 73t-22 59t-41.5 39t-65 14zM275 -10q-63 0 -107 19t-71 53t-39.5 82t-12.5 106t12.5 106t39.5 82t71 53t107 19t106.5 -19t71 -53t40 -82t12.5 -106
t-12.5 -106t-40 -82t-71 -53t-106.5 -19z" />
    <glyph glyph-name="p" unicode="p" horiz-adv-x="560" 
d="M20 500h155v-50h2q26 26 67 43t86 17q52 0 87.5 -20t57.5 -55.5t31 -83t9 -101.5t-10 -101.5t-32.5 -83t-59 -55.5t-88.5 -20q-43 0 -82.5 15.5t-65.5 41.5h-2v-172h65v-75h-220v75h65v550h-65v75zM420 250q0 37 -6 71t-20 59t-38.5 40t-60.5 15q-42 0 -73.5 -15
t-46.5 -28v-285q15 -12 46.5 -27t73.5 -15q36 0 60.5 15t38.5 40t20 58.5t6 71.5z" />
    <glyph glyph-name="q" unicode="q" horiz-adv-x="530" 
d="M320 -125h65v175h-2q-27 -26 -67.5 -43t-85.5 -17q-53 0 -88 20t-57 55.5t-31 83t-9 101.5t10 101.5t32.5 83t58.5 55.5t89 20q43 0 83.5 -16t69.5 -42h2l16 50h69v-627h65v-75h-220v75zM140 250q0 -38 5.5 -71.5t20 -58.5t38.5 -40t61 -15q42 0 73 15t47 27v285
q-16 13 -47 28t-73 15q-37 0 -61 -15t-38.5 -40t-20 -59t-5.5 -71z" />
    <glyph glyph-name="r" unicode="r" horiz-adv-x="400" 
d="M20 500h155v-80h2q15 17 35 33t44 29t51.5 20.5t57.5 7.5v-85q-28 0 -55.5 -5.5t-52.5 -14t-46 -18.5t-36 -20v-292h75v-75h-230v75h65v350h-65v75z" />
    <glyph glyph-name="s" unicode="s" horiz-adv-x="480" 
d="M355 365v61q-38 8 -70 9.5t-50 1.5q-34 0 -53.5 -8t-30 -18.5t-13.5 -21.5t-3 -17q0 -12 4 -23t15.5 -20.5t32.5 -17.5t55 -15q39 -9 75 -19.5t63 -27.5t43.5 -42.5t16.5 -64.5q0 -75 -48.5 -113.5t-136.5 -38.5q-60 0 -115 5.5t-100 16.5v123h75v-61q39 -8 75 -10t55 -2
q34 0 55 9t32 21t14.5 24.5t3.5 19.5q0 13 -5 24t-18 20.5t-35 17t-55 13.5q-40 7 -75 18.5t-61 29.5t-41 45t-15 66q0 72 47.5 106t137.5 34q58 0 106.5 -6t93.5 -17v-122h-75z" />
    <glyph glyph-name="t" unicode="t" horiz-adv-x="375" 
d="M95 435h-75v59l75 6l11 140h79v-140h140v-65h-140v-275q0 -48 18 -73t67 -25q11 0 23 1.5l28 3.5l9 -70q-20 -3 -46 -5t-44 -2q-77 0 -111 35t-34 120v290z" />
    <glyph glyph-name="u" unicode="u" horiz-adv-x="590" 
d="M20 500h155v-325q0 -49 22.5 -79.5t77.5 -30.5q21 0 41.5 6t38.5 14.5t33.5 18.5t26.5 18v303h-80v75h170v-425h65v-75h-155v70h-2q-36 -36 -80 -58t-98 -22q-75 0 -112.5 43t-37.5 122v270h-65v75z" />
    <glyph glyph-name="v" unicode="v" horiz-adv-x="579" 
d="M355 500h204v-75h-43l-172 -430h-108l-171 430h-45v75h218v-75h-73l132 -338h2l127 338h-71v75z" />
    <glyph glyph-name="w" unicode="w" horiz-adv-x="809" 
d="M585 500h204v-75h-44l-132 -430h-97l-111 352h-2l-103 -352h-96l-141 430h-43v75h218v-75h-79l101 -328h2l112 403h75l117 -408h2l89 333h-72v75z" />
    <glyph glyph-name="x" unicode="x" horiz-adv-x="608" 
d="M385 500h193v-75h-54l-155 -173l159 -177h60v-75h-239v75h56l-125 144l-122 -144h59v-75h-197v75h51l162 187l-148 163h-55v75h234v-75h-56l116 -133l112 133h-51v75z" />
    <glyph glyph-name="y" unicode="y" horiz-adv-x="579" 
d="M355 500h204v-75h-43l-180 -453q-16 -40 -35.5 -73.5t-44 -57.5t-54.5 -37.5t-66 -13.5q-17 0 -37 2t-36 5l8 73q12 -3 24.5 -4t21.5 -1q25 0 45.5 11t36 28.5t27 39.5t19.5 44l-180 437h-45v75h218v-75h-73l137 -348h2l122 348h-71v75z" />
    <glyph glyph-name="z" unicode="z" horiz-adv-x="470" 
d="M432 500v-70l-292 -358v-2h230v65h75v-135h-418v70l295 358v2h-212v-65h-75v135h397z" />
    <glyph glyph-name="braceleft" unicode="{" horiz-adv-x="340" 
d="M210 10q0 -41 8 -63.5t21.5 -33t30.5 -12t35 -1.5v-40q-41 0 -75.5 4.5t-60 19.5t-40 44t-14.5 78q0 46 5 95t5 94q0 24 -1 44.5t-7.5 36t-21 25.5t-40.5 14v50q26 4 40.5 14t21 25.5t7.5 36t1 44.5q0 45 -5 94t-5 95q0 49 14.5 78t40 44t60 19.5t75.5 4.5v-40
q-18 0 -35 -2t-30.5 -12.5t-21.5 -33t-8 -62.5q0 -23 2 -50t4 -55t4 -55.5t2 -50.5q0 -30 -6.5 -50t-18.5 -33.5t-29 -21.5t-37 -13v-2q20 -5 37 -13t29 -21.5t18.5 -33.5t6.5 -50q0 -23 -2 -50.5t-4 -55.5t-4 -55t-2 -50z" />
    <glyph glyph-name="bar" unicode="|" horiz-adv-x="170" 
d="M55 -100v880h60v-880h-60z" />
    <glyph glyph-name="braceright" unicode="}" horiz-adv-x="340" 
d="M130 670q0 40 -8 62.5t-21.5 33t-30.5 12.5t-35 2v40q40 0 75 -4.5t60.5 -19.5t40 -44t14.5 -78q0 -46 -5 -95t-5 -94q0 -24 1 -44.5t7.5 -36t21 -25.5t40.5 -14v-50q-26 -4 -40.5 -14t-21 -25.5t-7.5 -36t-1 -44.5q0 -45 5 -94t5 -95q0 -49 -14.5 -78t-40 -44
t-60.5 -19.5t-75 -4.5v40q18 0 35 1.5t30.5 12t21.5 33t8 63.5q0 23 -2 50t-4 55t-4 55.5t-2 50.5q0 30 6.5 50t18.5 33.5t28.5 21.5t36.5 13v2q-20 5 -36.5 13t-28.5 21.5t-18.5 33.5t-6.5 50q0 23 2 50.5t4 55.5t4 55t2 50z" />
    <glyph glyph-name="asciitilde" unicode="~" horiz-adv-x="460" 
d="M151 320q-14 0 -31 -7.5t-49 -40.5l-29 23q29 48 55 67.5t52 19.5q18 0 43.5 -8t52 -18t49.5 -18t36 -8q14 0 29.5 5.5t35.5 35.5l25 -28q-17 -33 -35.5 -51.5t-43.5 -21.5q-5 -1 -10 -0.5t-11 1.5q-16 3 -39 11t-47.5 16.5t-47 15t-35.5 6.5z" />
    <glyph glyph-name="Euro" unicode="&#x20ac;" horiz-adv-x="650" 
d="M86 290q-1 13 -1 27v28v22.5t1 22.5h-61v45h65q7 55 25 101.5t51.5 80.5t84.5 53.5t124 19.5q58 0 114.5 -8t120.5 -27v-140h-75v81q-51 11 -85 15t-68 4q-47 0 -80.5 -14t-55.5 -38.5t-34.5 -57.5t-18.5 -70h182l-3 -45h-186q-1 -11 -1 -22.5v-22.5v-28t1 -27h189
l-3 -45h-178q6 -39 19 -72t35 -57t55 -37.5t79 -13.5q34 0 68 3t85 15v82h75v-140q-64 -19 -120.5 -27t-114.5 -8q-71 0 -121.5 19t-84 53t-52 80.5t-25.5 102.5h-67v45h61z" />
    <glyph glyph-name="quotesinglbase" unicode="&#x201a;" horiz-adv-x="200" 
d="M70 -130l20 130h-35v130h90v-130l-45 -130h-30z" />
    <glyph glyph-name="florin" unicode="&#x192;" horiz-adv-x="460" 
d="M170 435h-75v59l75 6v44q0 85 33.5 120.5t111.5 35.5q19 0 38.5 -2t41.5 -6l-9 -70q-16 3 -28 4t-23 1q-45 0 -60 -25t-15 -73v-29h130v-65h-130v-475q0 -86 -31.5 -128t-113.5 -42q-18 0 -39 2t-41 5l8 70q17 -2 29 -3.5t23 -1.5q45 0 60 25t15 73v475z" />
    <glyph glyph-name="quotedblbase" unicode="&#x201e;" horiz-adv-x="420" 
d="M70 -130l20 130h-35v130h90v-130l-45 -130h-30zM290 -130l20 130h-35v130h90v-130l-45 -130h-30z" />
    <glyph glyph-name="ellipsis" unicode="&#x2026;" horiz-adv-x="640" 
d="M165 130v-130h-90v130h90zM365 130v-130h-90v130h90zM565 130v-130h-90v130h90z" />
    <glyph glyph-name="dagger" unicode="&#x2020;" horiz-adv-x="580" 
d="M332 420l5 -420h-95l5 420l-192 -5v85l192 -5l-5 205h95l-5 -205l193 5v-85z" />
    <glyph glyph-name="daggerdbl" unicode="&#x2021;" horiz-adv-x="580" 
d="M247 430l-192 -5v85l192 -5l-5 195h95l-5 -195l193 5v-85l-193 5v-160l193 5v-85l-193 5l5 -195h-95l5 195l-192 -5v85l192 -5v160z" />
    <glyph glyph-name="circumflex" unicode="&#x2c6;" horiz-adv-x="420" 
d="M125 560h-50l105 140h59l106 -140h-50l-86 89z" />
    <glyph glyph-name="perthousand" unicode="&#x2030;" horiz-adv-x="1110" 
d="M225 0h-60l370 680h60zM181 396q-67 0 -101.5 36.5t-34.5 102.5t34.5 103t101.5 37q66 0 101 -37t35 -103t-35 -102.5t-101 -36.5zM181 441q39 0 59 24.5t20 69.5t-20 69.5t-59 24.5t-59.5 -24.5t-20.5 -69.5t20.5 -69.5t59.5 -24.5zM579 5q-67 0 -101.5 36.5
t-34.5 102.5t34.5 103t101.5 37q66 0 101 -37t35 -103t-35 -102.5t-101 -36.5zM579 50q39 0 59 24.5t20 69.5t-20 69.5t-59 24.5t-59.5 -24.5t-20.5 -69.5t20.5 -69.5t59.5 -24.5zM929 5q-67 0 -101.5 36.5t-34.5 102.5t34.5 103t101.5 37q66 0 101 -37t35 -103t-35 -102.5
t-101 -36.5zM929 50q39 0 59 24.5t20 69.5t-20 69.5t-59 24.5t-59.5 -24.5t-20.5 -69.5t20.5 -69.5t59.5 -24.5z" />
    <glyph glyph-name="Scaron" unicode="&#x160;" horiz-adv-x="580" 
d="M289 780l86 90h50l-106 -140h-59l-105 140h50zM120 170v-78q56 -13 95.5 -17.5t74.5 -4.5q39 0 67 9.5t45 25t25 35t8 40.5q0 31 -16.5 51.5t-41.5 34t-55 22.5t-57 17q-42 11 -80.5 28t-68.5 42t-48 58.5t-18 76.5q0 48 18.5 82.5t50.5 56t74.5 31.5t91.5 10
q57 0 111.5 -8t118.5 -27v-145h-75v81q-53 11 -87.5 15t-67.5 4q-38 0 -63.5 -8t-41.5 -21.5t-23 -31.5t-7 -37q0 -29 16.5 -50t42.5 -36t56.5 -24.5t59.5 -16.5q41 -9 79 -24t67 -38.5t46.5 -56t17.5 -76.5q0 -51 -18.5 -88.5t-51.5 -62t-78 -37t-97 -12.5q-57 0 -119 8
t-126 27v145h75z" />
    <glyph glyph-name="guilsinglleft" unicode="&#x2039;" horiz-adv-x="380" 
d="M325 450v-95l-175 -105l175 -105v-95l-270 172v55z" />
    <glyph glyph-name="OE" unicode="&#x152;" horiz-adv-x="1015" 
d="M335 615q-61 0 -98.5 -22t-57.5 -59t-27 -86t-7 -103t7 -104.5t27 -89.5t57.5 -62.5t98.5 -23.5t98 23.5t57.5 63t27.5 91t7 108.5q0 54 -7.5 102t-28 84t-57.5 57t-97 21zM510 0v106q-10 -26 -24.5 -47t-35.5 -36.5t-49.5 -24t-65.5 -8.5q-87 0 -143.5 28.5t-89 77
t-45 113t-12.5 136.5q0 71 12.5 134t45 110t89 74t143.5 27q38 0 66.5 -8.5t49.5 -23.5t36 -36t25 -45v103h458v-145h-75v70h-270v-215h295v-75h-295v-240h270v70h75v-145h-460z" />
    <glyph glyph-name="quoteleft" unicode="&#x2018;" horiz-adv-x="200" 
d="M130 680l-20 -130h35v-130h-90v130l45 130h30z" />
    <glyph glyph-name="quoteright" unicode="&#x2019;" horiz-adv-x="200" 
d="M70 420l20 130h-35v130h90v-130l-45 -130h-30z" />
    <glyph glyph-name="quotedblleft" unicode="&#x201c;" horiz-adv-x="420" 
d="M350 680l-20 -130h35v-130h-90v130l45 130h30zM130 680l-20 -130h35v-130h-90v130l45 130h30z" />
    <glyph glyph-name="quotedblright" unicode="&#x201d;" horiz-adv-x="420" 
d="M70 420l20 130h-35v130h90v-130l-45 -130h-30zM290 420l20 130h-35v130h90v-130l-45 -130h-30z" />
    <glyph glyph-name="bullet" unicode="&#x2022;" horiz-adv-x="230" 
d="M145 315v-130h-90v130h90z" />
    <glyph glyph-name="endash" unicode="&#x2013;" horiz-adv-x="600" 
d="M545 302v-75h-490v75h490z" />
    <glyph glyph-name="emdash" unicode="&#x2014;" horiz-adv-x="700" 
d="M645 302v-75h-590v75h590z" />
    <glyph glyph-name="tilde" unicode="&#x2dc;" horiz-adv-x="450" 
d="M171 620q-9 0 -16.5 -1.5t-16 -6t-20 -14.5t-27.5 -26l-29 23q29 48 55 67.5t52 19.5q18 0 36 -8t35 -18t32 -18t28 -8q14 0 29.5 5.5t35.5 35.5l25 -28q-34 -67 -79 -73q-8 -1 -21 2q-14 3 -29 11t-31 16t-31 14.5t-28 6.5z" />
    <glyph glyph-name="trademark" unicode="&#x2122;" horiz-adv-x="800" 
d="M313 680v-89h-47v39h-74v-248h45v-46h-145v46h45v248h-74v-39h-46v89h296zM783 680v-47h-45v-251h45v-46h-145v46h42v203h-2l-100 -249h-40l-99 249h-1v-203h43v-46h-138v46h44v251h-44v47h120l100 -252h1l98 252h121z" />
    <glyph glyph-name="scaron" unicode="&#x161;" horiz-adv-x="480" 
d="M355 365v61q-38 8 -70 9.5t-50 1.5q-34 0 -53.5 -8t-30 -18.5t-13.5 -21.5t-3 -17q0 -12 4 -23t15.5 -20.5t32.5 -17.5t55 -15q39 -9 75 -19.5t63 -27.5t43.5 -42.5t16.5 -64.5q0 -75 -48.5 -113.5t-136.5 -38.5q-60 0 -115 5.5t-100 16.5v123h75v-61q39 -8 75 -10t55 -2
q34 0 55 9t32 21t14.5 24.5t3.5 19.5q0 13 -5 24t-18 20.5t-35 17t-55 13.5q-40 7 -75 18.5t-61 29.5t-41 45t-15 66q0 72 47.5 106t137.5 34q58 0 106.5 -6t93.5 -17v-122h-75zM248 610l86 90h50l-106 -140h-59l-105 140h50z" />
    <glyph glyph-name="guilsinglright" unicode="&#x203a;" horiz-adv-x="380" 
d="M325 277v-55l-270 -172v95l175 105l-175 105v95z" />
    <glyph glyph-name="oe" unicode="&#x153;" horiz-adv-x="895" 
d="M508 235q1 -38 10.5 -69t29 -53.5t50.5 -35t75 -12.5q36 0 73.5 3t82.5 17l11 -73q-48 -13 -89.5 -17.5t-90.5 -4.5q-83 0 -131 31.5t-71 84.5q-21 -54 -64.5 -85t-118.5 -31q-63 0 -107 19t-71 53t-39.5 82t-12.5 106t12.5 106t39.5 82t71 53t107 19q75 0 118.5 -31.5
t64.5 -85.5q23 54 69.5 85.5t127.5 31.5q79 0 122 -27t61.5 -67.5t18.5 -89t-8 -91.5h-341zM275 435q-39 0 -65 -14t-41.5 -39t-22 -59t-6.5 -73t6.5 -73t22 -59t41.5 -39t65 -14q38 0 64 13.5t41.5 38.5t22.5 58.5t7 74.5q0 39 -6.5 73t-22 59t-41.5 39t-65 14zM650 440
q-38 0 -64 -11.5t-42.5 -31t-25 -47t-10.5 -58.5h253q5 26 3.5 52.5t-13.5 47.5t-36.5 34.5t-64.5 13.5z" />
    <glyph glyph-name="Ydieresis" unicode="&#x178;" horiz-adv-x="660" 
d="M252 870v-120h-80v120h80zM502 870v-120h-80v120h80zM442 75v-75h-225v75h65v145l-204 385h-58v75h250v-75h-91l157 -295h2l156 295h-90v75h236v-75h-54l-209 -385v-145h65z" />
    <glyph glyph-name="exclamdown" unicode="&#xa1;" horiz-adv-x="200" 
d="M55 370v130h90v-130h-90zM55 -200l5 480h80l5 -480h-90z" />
    <glyph glyph-name="cent" unicode="&#xa2;" horiz-adv-x="510" 
d="M287 -100v90q-54 2 -97 21.5t-73 53.5t-46 81t-16 104q0 56 16 103t46 81t73 53.5t97 21.5v91h40v-92q42 -2 74 -11t69 -25l-11 -70q-38 14 -67 22t-65 10v-369q36 2 65 10t67 22l11 -70q-37 -16 -69 -25t-74 -11v-91h-40zM150 250q0 -76 35.5 -126.5t101.5 -56.5v365
q-33 -3 -58.5 -18t-43 -39t-26.5 -56t-9 -69z" />
    <glyph glyph-name="sterling" unicode="&#xa3;" horiz-adv-x="580" 
d="M175 320v-240h295v65h75v-145h-510v80h50v240h-50v45h50v145q0 48 17.5 82.5t48.5 56t73 31.5t91 10q63 0 118 -11t112 -34v-135h-75v71q-45 17 -82.5 23t-72.5 6q-39 0 -66 -8.5t-43.5 -22.5t-23.5 -34t-7 -42v-138h230v-45h-230z" />
    <glyph glyph-name="currency" unicode="&#xa4;" horiz-adv-x="513" 
d="M100 249q0 69 48 114l-78 90l8 8l79 -90q42 36 100 36q57 0 99 -36l78 90l9 -8l-78 -89q23 -22 36.5 -51.5t13.5 -63.5t-13 -63.5t-36 -50.5l76 -86l-9 -9l-77 87q-41 -35 -99 -35q-59 0 -100 35l-76 -87l-9 9l76 86q-48 45 -48 114zM112 249q0 -30 11.5 -56t31.5 -46
t46 -31.5t56 -11.5t56.5 11.5t46.5 31.5t31.5 46t11.5 56t-11.5 56.5t-31.5 46.5t-46.5 31.5t-56.5 11.5t-56 -11.5t-46 -31.5t-31.5 -46.5t-11.5 -56.5z" />
    <glyph glyph-name="yen" unicode="&#xa5;" horiz-adv-x="660" 
d="M442 75v-75h-225v75h65v140h-167v45h146l-188 345h-53v75h250v-75h-86l152 -285h2l151 285h-85v75h236v-75h-54l-188 -345h147v-45h-168v-140h65z" />
    <glyph glyph-name="brokenbar" unicode="&#xa6;" horiz-adv-x="170" 
d="M55 380v400h60v-400h-60zM55 -100v400h60v-400h-60z" />
    <glyph glyph-name="section" unicode="&#xa7;" horiz-adv-x="600" 
d="M545 340q0 -57 -24.5 -97t-66.5 -63q38 -26 62 -62.5t24 -87.5q0 -49 -18.5 -83t-50.5 -55.5t-74.5 -31.5t-91.5 -10q-70 0 -129 17t-101 43l37 74q54 -28 102 -38.5t91 -10.5q39 0 65 7.5t41.5 20.5t22 30t6.5 37q0 30 -19 51t-46 35.5t-57.5 23.5t-52.5 15
q-42 10 -79 25t-65 38t-44.5 55.5t-16.5 76.5q0 57 24 96.5t66 62.5q-38 26 -61.5 63t-23.5 88q0 48 18.5 82.5t50.5 56t74.5 31.5t91.5 10q70 0 129 -17t101 -43l-38 -75q-54 28 -101.5 39t-90.5 11q-39 0 -65 -8t-41.5 -21t-22 -30t-6.5 -36q0 -30 19 -51.5t46 -36
t57 -23.5t53 -14q41 -10 78.5 -25t65.5 -38t44.5 -55t16.5 -77zM285 452q-14 1 -29.5 3.5t-29.5 6.5q-35 -17 -50.5 -47t-15.5 -60q0 -29 14 -48t34.5 -31.5t44 -20t42.5 -12.5l38 -10t38 -13q38 17 56 49t18 66q0 30 -17 50t-41.5 33t-52.5 21t-49 13z" />
    <glyph glyph-name="dieresis" unicode="&#xa8;" horiz-adv-x="480" 
d="M155 700v-120h-80v120h80zM405 700v-120h-80v120h80z" />
    <glyph glyph-name="copyright" unicode="&#xa9;" horiz-adv-x="765" 
d="M30 340q0 73 27.5 137t75.5 111t112 74.5t137 27.5t137.5 -27.5t112.5 -74.5t75.5 -111t27.5 -137t-27.5 -137t-75.5 -111t-112.5 -74.5t-137.5 -27.5t-137 27.5t-112 74.5t-75.5 111t-27.5 137zM72 340q0 -64 24.5 -120.5t66.5 -98.5t98.5 -66.5t120.5 -24.5t120.5 24.5
t98.5 66.5t66.5 98.5t24.5 120.5t-24.5 120t-66.5 97.5t-98.5 65.5t-120.5 24t-120.5 -24t-98.5 -65.5t-66.5 -97.5t-24.5 -120zM389 467q-58 0 -85 -31.5t-27 -91.5q0 -64 27 -98.5t85 -34.5q23 0 49 6.5t52 23.5l21 -42q-19 -13 -49.5 -25t-76.5 -12q-81 0 -124 47
t-43 135q0 84 43 128t124 44q46 0 76.5 -12.5t49.5 -25.5l-20 -42q-27 17 -53 24t-49 7z" />
    <glyph glyph-name="ordfeminine" unicode="&#xaa;" horiz-adv-x="279" 
d="M36 611v63q55 11 98 11q45 0 69 -17t24 -66v-132h32v-40h-80v25h-1q-17 -14 -32 -21t-35 -8q-12 -1 -25 0q-58 5 -64 60q-1 6 -1.5 11.5t0.5 11.5q3 38 34 52.5t70 14.5h54v24q0 45 -56 45q-9 0 -20 -1t-27 -3v-30h-40zM179 546h-47q-34 0 -49 -10t-15 -33
q0 -19 13.5 -30t37.5 -11q20 0 36 6.5t24 14.5v63z" />
    <glyph glyph-name="guillemotleft" unicode="&#xab;" horiz-adv-x="730" 
d="M325 450v-95l-175 -105l175 -105v-95l-270 172v55zM675 450v-95l-175 -105l175 -105v-95l-270 172v55z" />
    <glyph glyph-name="logicalnot" unicode="&#xac;" horiz-adv-x="590" 
d="M515 302v-182h-75v107h-365v75h440z" />
    <glyph glyph-name="uni00AD" unicode="&#xad;" horiz-adv-x="540" 
d="M465 302v-75h-390v75h390z" />
    <glyph glyph-name="registered" unicode="&#xae;" horiz-adv-x="765" 
d="M467 168l-88 113h-68v-113h-55v344h138q63 0 96 -30t33 -84q0 -45 -22.5 -73t-61.5 -35l96 -122h-68zM311 331h81q35 0 55 16t20 51q0 32 -19.5 48t-53.5 16h-83v-131zM30 340q0 73 27.5 137t75.5 111t112 74.5t137 27.5t137.5 -27.5t112.5 -74.5t75.5 -111t27.5 -137
t-27.5 -137t-75.5 -111t-112.5 -74.5t-137.5 -27.5t-137 27.5t-112 74.5t-75.5 111t-27.5 137zM72 340q0 -64 24.5 -120.5t66.5 -98.5t98.5 -66.5t120.5 -24.5t120.5 24.5t98.5 66.5t66.5 98.5t24.5 120.5t-24.5 120t-66.5 97.5t-98.5 65.5t-120.5 24t-120.5 -24
t-98.5 -65.5t-66.5 -97.5t-24.5 -120z" />
    <glyph glyph-name="macron" unicode="&#xaf;" horiz-adv-x="380" 
d="M315 650v-65h-250v65h250z" />
    <glyph glyph-name="degree" unicode="&#xb0;" horiz-adv-x="260" 
d="M39 580q0 38 26.5 64t64.5 26t64 -26t26 -64t-26 -64.5t-64 -26.5t-64.5 26.5t-26.5 64.5zM74 580q0 -24 16 -40t40 -16q23 0 39 16t16 40q0 23 -16 39t-39 16q-24 0 -40 -16t-16 -39z" />
    <glyph glyph-name="plusminus" unicode="&#xb1;" horiz-adv-x="500" 
d="M212 115v120h-157v75h157v157h75v-157h158v-75h-158v-120h158v-75h-390v75h157z" />
    <glyph glyph-name="twosuperior" unicode="&#xb2;" horiz-adv-x="269" 
d="M249 614v-74h-229v46q53 35 85.5 63t50.5 51t24 41t6 32q0 23 -7.5 36.5t-18.5 20.5t-22.5 9t-20.5 2q-14 0 -27 -2.5t-30 -9.5v-30h-40v61q28 12 52 18.5t56 6.5q57 0 83 -30t26 -72q0 -54 -38 -101t-111 -99v-1h122v32h39z" />
    <glyph glyph-name="threesuperior" unicode="&#xb3;" horiz-adv-x="269" 
d="M20 621h40v-35q14 -6 31 -8.5t36 -2.5q24 0 38 6t22 15t10.5 19t2.5 18q0 26 -18.5 41.5t-60.5 15.5h-43v40h41q40 0 56.5 19t16.5 41q0 9 -3 18.5t-10 17.5t-20 13.5t-32 5.5q-17 0 -32 -3.5t-29 -8.5v-34h-40v62q26 13 54 18.5t55 5.5q48 0 76 -22.5t28 -67.5
q0 -30 -18 -50t-46 -30v-1q36 -7 55 -30t19 -54q0 -46 -30.5 -70.5t-88.5 -24.5q-31 0 -57.5 5t-52.5 19v62z" />
    <glyph glyph-name="acute" unicode="&#xb4;" horiz-adv-x="290" 
d="M118 560h-50l60 140h77z" />
    <glyph glyph-name="mu" unicode="&#xb5;" horiz-adv-x="590" 
d="M20 500h155v-325q0 -49 22.5 -79.5t77.5 -30.5q21 0 41.5 6t38.5 14.5t33.5 18.5t26.5 18v303h-80v75h170v-425h65v-75h-155v70h-2q-29 -26 -62 -45t-71 -24q-74 -9 -105 33v-53q0 -44 -5 -78t-19 -57.5t-38 -37t-62 -16.5q-8 -2 -17 -2h-20q-14 1 -31 3t-33 4l8 70
q17 -2 29 -3.5t23 -1.5q45 0 60 25t15 73v465h-65v75z" />
    <glyph glyph-name="paragraph" unicode="&#xb6;" horiz-adv-x="565" 
d="M388 645h-65v-350h-92q-45 0 -82 14t-63.5 39.5t-41 61t-14.5 78.5q0 45 14.5 80.5t41 60.5t63.5 38t82 13h279v-35h-82v-610h82v-35h-138v5h16v640z" />
    <glyph glyph-name="periodcentered" unicode="&#xb7;" horiz-adv-x="200" 
d="M145 315v-130h-90v130h90z" />
    <glyph glyph-name="periodcentered" unicode="&#x2219;" horiz-adv-x="200" 
d="M145 315v-130h-90v130h90z" />
    <glyph glyph-name="cedilla" unicode="&#xb8;" horiz-adv-x="294" 
d="M113 0h35v-55q14 -1 29 -5t27 -12.5t20 -22t8 -32.5q0 -36 -26 -57t-72 -21q-35 0 -74 12l6 30q12 -3 24 -5t28 -2q33 0 45 16t12 31t-13 30.5t-49 17.5v75z" />
    <glyph glyph-name="onesuperior" unicode="&#xb9;" horiz-adv-x="206" 
d="M186 580v-40h-166v40h59v256l-57 -5v34l83 18h22v-303h59z" />
    <glyph glyph-name="ordmasculine" unicode="&#xba;" horiz-adv-x="272" 
d="M136 645q-38 0 -52 -26t-14 -64q0 -39 14 -64.5t52 -25.5t51.5 25.5t13.5 64.5q0 38 -13.5 64t-51.5 26zM136 425q-64 0 -90 35t-26 95q0 58 26 94t90 36q63 0 89.5 -36t26.5 -94q0 -60 -26.5 -95t-89.5 -35z" />
    <glyph glyph-name="guillemotright" unicode="&#xbb;" horiz-adv-x="730" 
d="M325 277v-55l-270 -172v95l175 105l-175 105v95zM675 277v-55l-270 -172v95l175 105l-175 105v95z" />
    <glyph glyph-name="onequarter" unicode="&#xbc;" horiz-adv-x="800" 
d="M252 0h-30l370 680h30zM236 380v-40h-166v40h59v256l-57 -5v34l83 18h22v-303h59zM635 137v153h-1q-23 -43 -49.5 -80.5t-57.5 -72.5h108zM635 97h-157v40q42 45 80 95t65 111h60v-206h47v-40h-47v-57h32v-40h-112v40h32v57z" />
    <glyph glyph-name="onehalf" unicode="&#xbd;" horiz-adv-x="800" 
d="M212 0h-30l370 680h30zM236 380v-40h-166v40h59v256l-57 -5v34l83 18h22v-303h59zM730 74v-74h-230v46q53 35 86 63.5t51 51t24 40.5t6 32q0 23 -7.5 36.5t-18.5 20.5t-23 9t-20 2q-14 0 -27.5 -2.5t-30.5 -9.5v-30h-40v61q29 12 53 18.5t56 6.5q57 0 82.5 -30t25.5 -72
q0 -54 -37 -101t-112 -99v-1h122v32h40z" />
    <glyph glyph-name="threequarters" unicode="&#xbe;" horiz-adv-x="800" 
d="M262 0h-30l370 680h30zM70 421h40v-35q14 -6 31 -8.5t36 -2.5q24 0 38 6t22 15t10.5 19t2.5 18q0 26 -18.5 41.5t-60.5 15.5h-43v40h41q40 0 56.5 19t16.5 41q0 9 -3 18.5t-10 17.5t-20 13.5t-32 5.5q-17 0 -32 -3.5t-29 -8.5v-34h-40v62q26 13 54 18.5t55 5.5
q48 0 76 -22.5t28 -67.5q0 -30 -18 -50t-46 -30v-1q36 -7 55 -30t19 -54q0 -46 -30.5 -70.5t-88.5 -24.5q-31 0 -57.5 5t-52.5 19v62zM635 137v153h-1q-23 -43 -49.5 -80.5t-57.5 -72.5h108zM635 97h-157v40q42 45 80 95t65 111h60v-206h47v-40h-47v-57h32v-40h-112v40h32
v57z" />
    <glyph glyph-name="questiondown" unicode="&#xbf;" horiz-adv-x="500" 
d="M445 -152q-42 -17 -93 -27.5t-102 -10.5q-59 0 -97 16.5t-60 42t-30 56.5t-8 60q0 44 13.5 74.5t34.5 52.5t44.5 38t44.5 32t34.5 34t13.5 44v30h80v-30q0 -37 -13 -62t-32 -44.5t-41.5 -35t-41.5 -32.5t-32 -39t-13 -53q0 -35 13.5 -54.5t32.5 -29.5t40 -12.5t37 -2.5
q17 0 42.5 4.5t57.5 15.5v75h75v-142zM235 370v130h90v-130h-90z" />
    <glyph glyph-name="Agrave" unicode="&#xc0;" horiz-adv-x="700" 
d="M228 870h78l60 -140h-50zM421 680l204 -605h55v-75h-235v75h77l-44 132h-255l-47 -132h74v-75h-230v75h63l187 530h-73v75h224zM355 595h-1l-111 -318h218z" />
    <glyph glyph-name="Aacute" unicode="&#xc1;" horiz-adv-x="700" 
d="M385 730h-50l60 140h77zM421 680l204 -605h55v-75h-235v75h77l-44 132h-255l-47 -132h74v-75h-230v75h63l187 530h-73v75h224zM355 595h-1l-111 -318h218z" />
    <glyph glyph-name="Acircumflex" unicode="&#xc2;" horiz-adv-x="700" 
d="M263 730h-50l105 140h59l106 -140h-50l-86 89zM421 680l204 -605h55v-75h-235v75h77l-44 132h-255l-47 -132h74v-75h-230v75h63l187 530h-73v75h224zM355 595h-1l-111 -318h218z" />
    <glyph glyph-name="Atilde" unicode="&#xc3;" horiz-adv-x="700" 
d="M295 790q-9 0 -16.5 -1.5t-16 -6t-20 -14.5t-27.5 -26l-29 23q29 48 55 67.5t52 19.5q18 0 36 -8t35 -18t32 -18t28 -8q14 0 29.5 5.5t35.5 35.5l25 -28q-34 -67 -79 -73q-8 -1 -21 2q-14 3 -29 11t-31 16t-31 14.5t-28 6.5zM421 680l204 -605h55v-75h-235v75h77l-44 132
h-255l-47 -132h74v-75h-230v75h63l187 530h-73v75h224zM354 595l-111 -318h218l-106 318h-1z" />
    <glyph glyph-name="Adieresis" unicode="&#xc4;" horiz-adv-x="700" 
d="M268 870v-120h-80v120h80zM518 870v-120h-80v120h80zM421 680l204 -605h55v-75h-235v75h77l-44 132h-255l-47 -132h74v-75h-230v75h63l187 530h-73v75h224zM355 595h-1l-111 -318h218z" />
    <glyph glyph-name="Aring" unicode="&#xc5;" horiz-adv-x="700" 
d="M259 820q0 38 26.5 64t64.5 26t64 -26t26 -64t-26 -64.5t-64 -26.5t-64.5 26.5t-26.5 64.5zM294 820q0 -24 16 -40t40 -16q23 0 39 16t16 40q0 23 -16 39t-39 16q-24 0 -40 -16t-16 -39zM421 680l204 -605h55v-75h-235v75h77l-44 132h-255l-47 -132h74v-75h-230v75h63
l187 530h-73v75h224zM354 595l-111 -318h218l-106 318h-1z" />
    <glyph glyph-name="AE" unicode="&#xc6;" horiz-adv-x="916" 
d="M275 605v75h596v-145h-75v70h-270v-215h295v-75h-295v-240h270v70h75v-145h-440v242h-175q-29 -54 -57 -107.5t-57 -107.5h42l-8 -27h-166v75h59l279 530h-73zM289 317h142v277h-2z" />
    <glyph glyph-name="Ccedilla" unicode="&#xc7;" horiz-adv-x="610" 
d="M317 -10q-82 3 -134.5 32t-83 77t-42.5 111.5t-12 134.5t12.5 134t45 110t89 74t143.5 27q58 0 114.5 -8t120.5 -27v-140h-75v81q-51 11 -85 15t-68 4q-59 0 -97 -22t-60.5 -59t-31 -86t-8.5 -103q0 -58 8.5 -109t31 -89t60.5 -60t97 -22q34 0 68 3t85 15v82h75v-140
q-60 -18 -112 -25.5t-106 -9.5v-45q14 -1 29 -5t27 -12.5t20 -22t8 -32.5q0 -36 -26 -57t-72 -21q-35 0 -74 12l6 30q12 -3 24 -5t28 -2q33 0 45 16t12 31t-13 30.5t-49 17.5v65z" />
    <glyph glyph-name="Egrave" unicode="&#xc8;" horiz-adv-x="570" 
d="M199 870h78l60 -140h-50zM525 680v-145h-75v70h-270v-215h295v-75h-295v-240h270v70h75v-145h-505v75h65v530h-65v75h505z" />
    <glyph glyph-name="Eacute" unicode="&#xc9;" horiz-adv-x="570" 
d="M318 730h-50l60 140h77zM525 680v-145h-75v70h-270v-215h295v-75h-295v-240h270v70h75v-145h-505v75h65v530h-65v75h505z" />
    <glyph glyph-name="Ecircumflex" unicode="&#xca;" horiz-adv-x="570" 
d="M224 730h-50l105 140h59l106 -140h-50l-86 89zM525 680v-145h-75v70h-270v-215h295v-75h-295v-240h270v70h75v-145h-505v75h65v530h-65v75h505z" />
    <glyph glyph-name="Edieresis" unicode="&#xcb;" horiz-adv-x="570" 
d="M210 870v-120h-80v120h80zM460 870v-120h-80v120h80zM525 680v-145h-75v70h-270v-215h295v-75h-295v-240h270v70h75v-145h-505v75h65v530h-65v75h505z" />
    <glyph glyph-name="Igrave" unicode="&#xcc;" horiz-adv-x="265" 
d="M25 870h78l60 -140h-50zM85 75v530h-65v75h225v-75h-65v-530h65v-75h-225v75h65z" />
    <glyph glyph-name="Iacute" unicode="&#xcd;" horiz-adv-x="265" 
d="M153 730h-50l60 140h77zM85 75v530h-65v75h225v-75h-65v-530h65v-75h-225v75h65z" />
    <glyph glyph-name="Icircumflex" unicode="&#xce;" horiz-adv-x="265" 
d="M47 730h-50l105 140h59l106 -140h-50l-86 89zM85 75v530h-65v75h225v-75h-65v-530h65v-75h-225v75h65z" />
    <glyph glyph-name="Idieresis" unicode="&#xcf;" horiz-adv-x="265" 
d="M47 870v-120h-80v120h80zM297 870v-120h-80v120h80zM85 75v530h-65v75h225v-75h-65v-530h65v-75h-225v75h65z" />
    <glyph glyph-name="Eth" unicode="&#xd0;" horiz-adv-x="660" 
d="M327 680q84 0 139.5 -25.5t88.5 -70.5t46.5 -106.5t13.5 -132.5q0 -72 -13.5 -135t-46.5 -109.5t-88.5 -73.5t-139.5 -27h-307v75h65v242h-65v55h65v233h-65v75h307zM327 75q57 0 93.5 22t57.5 59t29 86t8 103t-8 101.5t-29 83t-57.5 55.5t-93.5 20h-147v-233h105v-55
h-105v-242h147z" />
    <glyph glyph-name="Ntilde" unicode="&#xd1;" horiz-adv-x="690" 
d="M299 790q-9 0 -16.5 -1.5t-16 -6t-20 -14.5t-27.5 -26l-29 23q29 48 55 67.5t52 19.5q18 0 36 -8t35 -18t32 -18t28 -8q14 0 29.5 5.5t35.5 35.5l25 -28q-34 -67 -79 -73q-8 -1 -21 2q-14 3 -29 11t-31 16t-31 14.5t-28 6.5zM670 680v-75h-65v-605h-98l-333 507h-2v-432
h68v-75h-220v75h65v530h-65v75h157l338 -520h2v445h-67v75h220z" />
    <glyph glyph-name="Ograve" unicode="&#xd2;" horiz-adv-x="670" 
d="M239 870h78l60 -140h-50zM335 615q-61 0 -98.5 -22t-57.5 -59t-27 -86t-7 -103t7 -104.5t27 -89.5t57.5 -62.5t98.5 -23.5t98 23.5t57.5 62.5t27.5 89.5t7 104.5t-7 103t-27.5 86t-57.5 59t-98 22zM335 -10q-87 0 -143.5 28.5t-89 77t-45 113t-12.5 136.5q0 71 12.5 134
t45 110t89 74t143.5 27t143 -27t89 -74t45.5 -110t12.5 -134q0 -72 -12.5 -136.5t-45.5 -113t-89 -77t-143 -28.5z" />
    <glyph glyph-name="Oacute" unicode="&#xd3;" horiz-adv-x="670" 
d="M359 730h-50l60 140h77zM335 615q-61 0 -98.5 -22t-57.5 -59t-27 -86t-7 -103t7 -104.5t27 -89.5t57.5 -62.5t98.5 -23.5t98 23.5t57.5 62.5t27.5 89.5t7 104.5t-7 103t-27.5 86t-57.5 59t-98 22zM335 -10q-87 0 -143.5 28.5t-89 77t-45 113t-12.5 136.5q0 71 12.5 134
t45 110t89 74t143.5 27t143 -27t89 -74t45.5 -110t12.5 -134q0 -72 -12.5 -136.5t-45.5 -113t-89 -77t-143 -28.5z" />
    <glyph glyph-name="Ocircumflex" unicode="&#xd4;" horiz-adv-x="670" 
d="M251 730h-50l105 140h59l106 -140h-50l-86 89zM335 615q-61 0 -98.5 -22t-57.5 -59t-27 -86t-7 -103t7 -104.5t27 -89.5t57.5 -62.5t98.5 -23.5t98 23.5t57.5 62.5t27.5 89.5t7 104.5t-7 103t-27.5 86t-57.5 59t-98 22zM335 -10q-87 0 -143.5 28.5t-89 77t-45 113
t-12.5 136.5q0 71 12.5 134t45 110t89 74t143.5 27t143 -27t89 -74t45.5 -110t12.5 -134q0 -72 -12.5 -136.5t-45.5 -113t-89 -77t-143 -28.5z" />
    <glyph glyph-name="Otilde" unicode="&#xd5;" horiz-adv-x="670" 
d="M279 790q-9 0 -16.5 -1.5t-16 -6t-20 -14.5t-27.5 -26l-29 23q29 48 55 67.5t52 19.5q18 0 36 -8t35 -18t32 -18t28 -8q14 0 29.5 5.5t35.5 35.5l25 -28q-34 -67 -79 -73q-8 -1 -21 2q-14 3 -29 11t-31 16t-31 14.5t-28 6.5zM335 615q-61 0 -98.5 -22t-57.5 -59t-27 -86
t-7 -103t7 -104.5t27 -89.5t57.5 -62.5t98.5 -23.5t98 23.5t57.5 62.5t27.5 89.5t7 104.5t-7 103t-27.5 86t-57.5 59t-98 22zM335 -10q-87 0 -143.5 28.5t-89 77t-45 113t-12.5 136.5q0 71 12.5 134t45 110t89 74t143.5 27t143 -27t89 -74t45.5 -110t12.5 -134
q0 -72 -12.5 -136.5t-45.5 -113t-89 -77t-143 -28.5z" />
    <glyph glyph-name="Odieresis" unicode="&#xd6;" horiz-adv-x="670" 
d="M253 870v-120h-80v120h80zM503 870v-120h-80v120h80zM335 615q-61 0 -98.5 -22t-57.5 -59t-27 -86t-7 -103t7 -104.5t27 -89.5t57.5 -62.5t98.5 -23.5t98 23.5t57.5 62.5t27.5 89.5t7 104.5t-7 103t-27.5 86t-57.5 59t-98 22zM335 -10q-87 0 -143.5 28.5t-89 77t-45 113
t-12.5 136.5q0 71 12.5 134t45 110t89 74t143.5 27t143 -27t89 -74t45.5 -110t12.5 -134q0 -72 -12.5 -136.5t-45.5 -113t-89 -77t-143 -28.5z" />
    <glyph glyph-name="multiply" unicode="&#xd7;" horiz-adv-x="526" 
d="M316 265l139 -140l-53 -53l-139 140l-140 -140l-53 53l140 140l-140 139l53 53l140 -139l139 139l53 -53z" />
    <glyph glyph-name="Oslash" unicode="&#xd8;" horiz-adv-x="670" 
d="M335 -10q-72 0 -120.5 19t-81.5 53l-74 -93l-29 23l77 97q-35 49 -48.5 115t-13.5 141q0 71 12.5 134t45 110t89 74t143.5 27q69 0 116.5 -17.5t79.5 -48.5l79 99l29 -23l-80 -101q38 -48 52 -113.5t14 -140.5q0 -72 -12.5 -136.5t-45.5 -113t-89 -77t-143 -28.5zM335 70
q61 0 98 22.5t57.5 60.5t27.5 88t7 104q0 48 -6 92t-26 79l-303 -382q22 -30 56.5 -47t88.5 -17zM335 610q-61 0 -98.5 -21t-57.5 -57t-27 -84.5t-7 -102.5q0 -48 5.5 -92t22.5 -80l303 381q-22 26 -56 41t-85 15z" />
    <glyph glyph-name="Ugrave" unicode="&#xd9;" horiz-adv-x="680" 
d="M223 870h78l60 -140h-50zM660 680v-75h-65v-365q0 -131 -67 -190.5t-188 -59.5q-122 0 -188.5 59.5t-66.5 190.5v365h-65v75h225v-75h-65v-365q0 -28 4.5 -59t21 -56.5t48.5 -42.5t88 -17q52 0 83.5 17t48 42.5t21.5 56.5t5 59v365h-65v75h225z" />
    <glyph glyph-name="Uacute" unicode="&#xda;" horiz-adv-x="680" 
d="M365 730h-50l60 140h77zM660 680v-75h-65v-365q0 -131 -67 -190.5t-188 -59.5q-122 0 -188.5 59.5t-66.5 190.5v365h-65v75h225v-75h-65v-365q0 -28 4.5 -59t21 -56.5t48.5 -42.5t88 -17q52 0 83.5 17t48 42.5t21.5 56.5t5 59v365h-65v75h225z" />
    <glyph glyph-name="Ucircumflex" unicode="&#xdb;" horiz-adv-x="680" 
d="M259 730h-50l105 140h59l106 -140h-50l-86 89zM660 680v-75h-65v-365q0 -131 -67 -190.5t-188 -59.5q-122 0 -188.5 59.5t-66.5 190.5v365h-65v75h225v-75h-65v-365q0 -28 4.5 -59t21 -56.5t48.5 -42.5t88 -17q52 0 83.5 17t48 42.5t21.5 56.5t5 59v365h-65v75h225z" />
    <glyph glyph-name="Udieresis" unicode="&#xdc;" horiz-adv-x="680" 
d="M254 870v-120h-80v120h80zM504 870v-120h-80v120h80zM660 680v-75h-65v-365q0 -131 -67 -190.5t-188 -59.5q-122 0 -188.5 59.5t-66.5 190.5v365h-65v75h225v-75h-65v-365q0 -28 4.5 -59t21 -56.5t48.5 -42.5t88 -17q52 0 83.5 17t48 42.5t21.5 56.5t5 59v365h-65v75h225
z" />
    <glyph glyph-name="Yacute" unicode="&#xdd;" horiz-adv-x="660" 
d="M370 730h-50l60 140h77zM442 75v-75h-225v75h65v145l-204 385h-58v75h250v-75h-91l157 -295h2l156 295h-90v75h236v-75h-54l-209 -385v-145h65z" />
    <glyph glyph-name="Thorn" unicode="&#xde;" horiz-adv-x="620" 
d="M365 540q101 0 155.5 -55t54.5 -145q0 -94 -53.5 -147t-156.5 -53h-185v-140h-160v75h65v530h-65v75h160v-140h185zM180 215h175q57 0 89.5 31t32.5 94q0 58 -32.5 91.5t-89.5 33.5h-175v-250z" />
    <glyph glyph-name="germandbls" unicode="&#xdf;" horiz-adv-x="645" 
d="M95 435h-75v59l75 6q0 59 19 98t50.5 61.5t72 31.5t83.5 9q93 0 149 -37t56 -113q0 -45 -19.5 -73t-43 -47.5t-43 -35t-19.5 -34.5t15 -28.5t32 -15.5q89 -32 123.5 -72t34.5 -93q0 -45 -17.5 -76t-45.5 -49.5t-64.5 -27t-73.5 -8.5q-38 0 -69 5.5t-60 14.5l11 70
q32 -11 60.5 -15.5t53.5 -4.5q37 0 58.5 10.5t33 25t15 30t3.5 24.5q0 28 -15 47.5t-35 32.5t-40.5 20.5t-32.5 13.5q-40 19 -56 37t-16 50q0 26 16.5 45t36.5 37.5t36.5 42t16.5 58.5q0 28 -10.5 46.5t-27 29t-35.5 14.5t-36 4q-39 0 -64 -12.5t-39 -34t-19 -49t-5 -57.5
v-475h-155v75h65v360z" />
    <glyph glyph-name="agrave" unicode="&#xe0;" horiz-adv-x="535" 
d="M72 365v124q51 10 101 15.5t92 5.5q45 0 79.5 -7.5t58 -26.5t35.5 -50.5t12 -80.5v-270h65v-75h-155v50h-2q-33 -28 -68.5 -44t-86.5 -16q-78 0 -120 39t-42 111q0 45 18 74t47 46t67 23.5t77 6.5h110v50q0 49 -26 72t-89 23q-18 0 -41.5 -2t-56.5 -7v-61h-75zM360 235
h-97q-72 0 -102.5 -21t-30.5 -69q0 -40 28 -62.5t77 -22.5q43 0 75.5 14t49.5 28v133zM167 700h78l60 -140h-50z" />
    <glyph glyph-name="aacute" unicode="&#xe1;" horiz-adv-x="535" 
d="M72 365v124q51 10 101 15.5t92 5.5q45 0 79.5 -7.5t58 -26.5t35.5 -50.5t12 -80.5v-270h65v-75h-155v50h-2q-33 -28 -68.5 -44t-86.5 -16q-78 0 -120 39t-42 111q0 45 18 74t47 46t67 23.5t77 6.5h110v50q0 49 -26 72t-89 23q-18 0 -41.5 -2t-56.5 -7v-61h-75zM360 235
h-97q-72 0 -102.5 -21t-30.5 -69q0 -40 28 -62.5t77 -22.5q43 0 75.5 14t49.5 28v133zM284 560h-50l60 140h77z" />
    <glyph glyph-name="acircumflex" unicode="&#xe2;" horiz-adv-x="535" 
d="M72 365v124q51 10 101 15.5t92 5.5q45 0 79.5 -7.5t58 -26.5t35.5 -50.5t12 -80.5v-270h65v-75h-155v50h-2q-33 -28 -68.5 -44t-86.5 -16q-78 0 -120 39t-42 111q0 45 18 74t47 46t67 23.5t77 6.5h110v50q0 49 -26 72t-89 23q-18 0 -41.5 -2t-56.5 -7v-61h-75zM360 235
h-97q-72 0 -102.5 -21t-30.5 -69q0 -40 28 -62.5t77 -22.5q43 0 75.5 14t49.5 28v133zM185 560h-50l105 140h59l106 -140h-50l-86 89z" />
    <glyph glyph-name="atilde" unicode="&#xe3;" horiz-adv-x="535" 
d="M72 365v124q51 10 101 15.5t92 5.5q45 0 79.5 -7.5t58 -26.5t35.5 -50.5t12 -80.5v-270h65v-75h-155v50h-2q-33 -28 -68.5 -44t-86.5 -16q-78 0 -120 39t-42 111q0 45 18 74t47 46t67 23.5t77 6.5h110v50q0 49 -26 72t-89 23q-18 0 -41.5 -2t-56.5 -7v-61h-75zM360 235
h-97q-72 0 -102.5 -21t-30.5 -69q0 -40 28 -62.5t77 -22.5q43 0 75.5 14t49.5 28v133zM213 620q-9 0 -16.5 -1.5t-16 -6t-20 -14.5t-27.5 -26l-29 23q29 48 55 67.5t52 19.5q18 0 36 -8t35 -18t32 -18t28 -8q14 0 29.5 5.5t35.5 35.5l25 -28q-34 -67 -79 -73q-8 -1 -21 2
q-14 3 -29 11t-31 16t-31 14.5t-28 6.5z" />
    <glyph glyph-name="adieresis" unicode="&#xe4;" horiz-adv-x="535" 
d="M72 365v124q51 10 101 15.5t92 5.5q45 0 79.5 -7.5t58 -26.5t35.5 -50.5t12 -80.5v-270h65v-75h-155v50h-2q-33 -28 -68.5 -44t-86.5 -16q-78 0 -120 39t-42 111q0 45 18 74t47 46t67 23.5t77 6.5h110v50q0 49 -26 72t-89 23q-18 0 -41.5 -2t-56.5 -7v-61h-75zM360 235
h-97q-72 0 -102.5 -21t-30.5 -69q0 -40 28 -62.5t77 -22.5q43 0 75.5 14t49.5 28v133zM184 700v-120h-80v120h80zM434 700v-120h-80v120h80z" />
    <glyph glyph-name="aring" unicode="&#xe5;" horiz-adv-x="535" 
d="M72 365v124q51 10 101 15.5t92 5.5q45 0 79.5 -7.5t58 -26.5t35.5 -50.5t12 -80.5v-270h65v-75h-155v50h-2q-33 -28 -68.5 -44t-86.5 -16q-78 0 -120 39t-42 111q0 45 18 74t47 46t67 23.5t77 6.5h110v50q0 49 -26 72t-89 23q-18 0 -41.5 -2t-56.5 -7v-61h-75zM360 235
h-97q-72 0 -102.5 -21t-30.5 -69q0 -40 28 -62.5t77 -22.5q43 0 75.5 14t49.5 28v133zM179 650q0 38 26.5 64t64.5 26t64 -26t26 -64t-26 -64.5t-64 -26.5t-64.5 26.5t-26.5 64.5zM214 650q0 -24 16 -40t40 -16q23 0 39 16t16 40q0 23 -16 39t-39 16q-24 0 -40 -16t-16 -39z
" />
    <glyph glyph-name="ae" unicode="&#xe6;" horiz-adv-x="845" 
d="M245 435q-18 0 -41.5 -2t-56.5 -7v-61h-75v124q38 8 89 14.5t98 6.5q69 0 106.5 -22t55.5 -76q23 45 67.5 71.5t116.5 26.5q79 0 122 -27t61.5 -67.5t18.5 -89t-8 -91.5h-342q2 -77 40 -123.5t125 -46.5q37 0 74 3t82 17l12 -73q-48 -13 -89.5 -17.5t-90.5 -4.5
q-81 0 -132 24t-79 69q-50 -56 -101 -74.5t-98 -18.5q-75 0 -117.5 40.5t-42.5 106.5q0 45 17.5 74.5t47 47t68 24.5t80.5 7h107v45q0 53 -25 76.5t-90 23.5zM235 60q43 0 79.5 16t61.5 40q-9 25 -12.5 54.5t-3.5 64.5h-105q-70 0 -97.5 -23.5t-27.5 -66.5q0 -40 28 -62.5
t77 -22.5zM600 440q-38 0 -64 -11.5t-42.5 -31t-25 -47t-11.5 -58.5h254q5 26 3.5 52.5t-13.5 47.5t-36.5 34.5t-64.5 13.5z" />
    <glyph glyph-name="ccedilla" unicode="&#xe7;" horiz-adv-x="490" 
d="M140 250q0 -41 8.5 -75t27 -58.5t47 -38t67.5 -13.5q26 0 60 2t93 18l17 -73q-45 -11 -83 -16.5t-83 -5.5v-45q13 -1 28 -5t27 -12.5t20 -22t8 -32.5q0 -36 -25.5 -57t-71.5 -21q-36 0 -75 12l6 30q12 -3 24 -5t29 -2q33 0 45 16t12 31q0 16 -12 31t-50 17v66
q-60 4 -100.5 24.5t-66 54t-36.5 79.5t-11 101q0 58 12.5 106t41.5 82t75.5 53t115.5 19q47 0 86 -6t84 -17v-122h-75v60q-32 8 -55.5 9t-39.5 1q-39 0 -67.5 -13.5t-47 -38t-27 -58.5t-8.5 -75z" />
    <glyph glyph-name="egrave" unicode="&#xe8;" horiz-adv-x="530" 
d="M140 235q1 -38 10.5 -69t29.5 -53.5t51.5 -35t75.5 -12.5q37 0 74 3t82 17l12 -73q-48 -13 -89.5 -17.5t-90.5 -4.5q-69 0 -117 19t-77.5 53t-42.5 82t-13 106t13 106t42 82t75.5 53t114.5 19q79 0 122 -27t61.5 -67.5t18.5 -89t-8 -91.5h-344zM285 440
q-38 0 -64.5 -11.5t-44 -31t-26 -47t-10.5 -58.5h256q5 26 3.5 52.5t-13.5 47.5t-36.5 34.5t-64.5 13.5zM177 700h78l60 -140h-50z" />
    <glyph glyph-name="eacute" unicode="&#xe9;" horiz-adv-x="530" 
d="M140 235q1 -38 10.5 -69t29.5 -53.5t51.5 -35t75.5 -12.5q37 0 74 3t82 17l12 -73q-48 -13 -89.5 -17.5t-90.5 -4.5q-69 0 -117 19t-77.5 53t-42.5 82t-13 106t13 106t42 82t75.5 53t114.5 19q79 0 122 -27t61.5 -67.5t18.5 -89t-8 -91.5h-344zM285 440
q-38 0 -64.5 -11.5t-44 -31t-26 -47t-10.5 -58.5h256q5 26 3.5 52.5t-13.5 47.5t-36.5 34.5t-64.5 13.5zM324 560h-50l60 140h77z" />
    <glyph glyph-name="ecircumflex" unicode="&#xea;" horiz-adv-x="530" 
d="M140 235q1 -38 10.5 -69t29.5 -53.5t51.5 -35t75.5 -12.5q37 0 74 3t82 17l12 -73q-48 -13 -89.5 -17.5t-90.5 -4.5q-69 0 -117 19t-77.5 53t-42.5 82t-13 106t13 106t42 82t75.5 53t114.5 19q79 0 122 -27t61.5 -67.5t18.5 -89t-8 -91.5h-344zM285 440
q-38 0 -64.5 -11.5t-44 -31t-26 -47t-10.5 -58.5h256q5 26 3.5 52.5t-13.5 47.5t-36.5 34.5t-64.5 13.5zM204 560h-50l105 140h59l106 -140h-50l-86 89z" />
    <glyph glyph-name="edieresis" unicode="&#xeb;" horiz-adv-x="530" 
d="M140 235q1 -38 10.5 -69t29.5 -53.5t51.5 -35t75.5 -12.5q37 0 74 3t82 17l12 -73q-48 -13 -89.5 -17.5t-90.5 -4.5q-69 0 -117 19t-77.5 53t-42.5 82t-13 106t13 106t42 82t75.5 53t114.5 19q79 0 122 -27t61.5 -67.5t18.5 -89t-8 -91.5h-344zM285 440
q-38 0 -64.5 -11.5t-44 -31t-26 -47t-10.5 -58.5h256q5 26 3.5 52.5t-13.5 47.5t-36.5 34.5t-64.5 13.5zM199 700v-120h-80v120h80zM449 700v-120h-80v120h80z" />
    <glyph glyph-name="igrave" unicode="&#xec;" horiz-adv-x="260" 
d="M20 500h155v-425h65v-75h-220v75h65v350h-65v75zM0 700h78l60 -140h-50z" />
    <glyph glyph-name="iacute" unicode="&#xed;" horiz-adv-x="260" 
d="M20 500h155v-425h65v-75h-220v75h65v350h-65v75zM156 560h-50l60 140h77z" />
    <glyph glyph-name="icircumflex" unicode="&#xee;" horiz-adv-x="260" 
d="M35 560h-50l105 140h59l106 -140h-50l-86 89zM20 500h155v-425h65v-75h-220v75h65v350h-65v75z" />
    <glyph glyph-name="idieresis" unicode="&#xef;" horiz-adv-x="260" 
d="M20 500h155v-425h65v-75h-220v75h65v350h-65v75zM40 700v-120h-80v120h80zM290 700v-120h-80v120h80z" />
    <glyph glyph-name="eth" unicode="&#xf0;" 
d="M450 719l32 -32l-70 -70q43 -45 68 -122t25 -195q0 -60 -11.5 -115.5t-39 -99t-73.5 -69.5t-114 -26q-48 0 -88.5 15.5t-70.5 45.5t-46.5 72.5t-16.5 96.5q0 114 55 174.5t152 60.5q49 0 90.5 -24.5t70.5 -63.5l2 1q-1 19 -4 44t-9.5 51t-18 51t-29.5 45l-68 -69l-32 33
l60 60q-20 14 -45 23t-56 9q-32 0 -63 -5.5t-73 -19.5l-11 69q39 14 73 22.5t82 8.5q42 0 81.5 -11t72.5 -35zM407 296q-24 34 -56.5 57t-74.5 23t-68.5 -15t-41.5 -37.5t-20.5 -50.5t-5.5 -53q0 -38 10.5 -67t28.5 -48.5t42 -29.5t51 -10q45 0 72.5 20t42 52t18.5 73.5
t2 85.5z" />
    <glyph glyph-name="ntilde" unicode="&#xf1;" horiz-adv-x="590" 
d="M355 75h60v250q0 49 -22 79.5t-78 30.5q-22 0 -42.5 -6t-38.5 -14.5t-33 -18.5t-26 -19v-302h60v-75h-215v75h65v350h-65v75h155v-70h2q36 35 80 57.5t98 22.5q75 0 112.5 -43t37.5 -122v-270h65v-75h-215v75zM243 620q-9 0 -16.5 -1.5t-16 -6t-20 -14.5t-27.5 -26
l-29 23q29 48 55 67.5t52 19.5q18 0 36 -8t35 -18t32 -18t28 -8q14 0 29.5 5.5t35.5 35.5l25 -28q-34 -67 -79 -73q-8 -1 -21 2q-14 3 -29 11t-31 16t-31 14.5t-28 6.5z" />
    <glyph glyph-name="ograve" unicode="&#xf2;" 
d="M275 435q-39 0 -65 -14t-41.5 -39t-22 -59t-6.5 -73t6.5 -73t22 -59t41.5 -39t65 -14t65 14t41.5 39t22 59t6.5 73t-6.5 73t-22 59t-41.5 39t-65 14zM275 -10q-63 0 -107 19t-71 53t-39.5 82t-12.5 106t12.5 106t39.5 82t71 53t107 19t106.5 -19t71 -53t40 -82t12.5 -106
t-12.5 -106t-40 -82t-71 -53t-106.5 -19zM171 700h78l60 -140h-50z" />
    <glyph glyph-name="oacute" unicode="&#xf3;" 
d="M275 435q-39 0 -65 -14t-41.5 -39t-22 -59t-6.5 -73t6.5 -73t22 -59t41.5 -39t65 -14t65 14t41.5 39t22 59t6.5 73t-6.5 73t-22 59t-41.5 39t-65 14zM275 -10q-63 0 -107 19t-71 53t-39.5 82t-12.5 106t12.5 106t39.5 82t71 53t107 19t106.5 -19t71 -53t40 -82t12.5 -106
t-12.5 -106t-40 -82t-71 -53t-106.5 -19zM301 560h-50l60 140h77z" />
    <glyph glyph-name="ocircumflex" unicode="&#xf4;" 
d="M275 435q-39 0 -65 -14t-41.5 -39t-22 -59t-6.5 -73t6.5 -73t22 -59t41.5 -39t65 -14t65 14t41.5 39t22 59t6.5 73t-6.5 73t-22 59t-41.5 39t-65 14zM275 -10q-63 0 -107 19t-71 53t-39.5 82t-12.5 106t12.5 106t39.5 82t71 53t107 19t106.5 -19t71 -53t40 -82t12.5 -106
t-12.5 -106t-40 -82t-71 -53t-106.5 -19zM190 560h-50l105 140h59l106 -140h-50l-86 89z" />
    <glyph glyph-name="otilde" unicode="&#xf5;" 
d="M275 435q-39 0 -65 -14t-41.5 -39t-22 -59t-6.5 -73t6.5 -73t22 -59t41.5 -39t65 -14t65 14t41.5 39t22 59t6.5 73t-6.5 73t-22 59t-41.5 39t-65 14zM275 -10q-63 0 -107 19t-71 53t-39.5 82t-12.5 106t12.5 106t39.5 82t71 53t107 19t106.5 -19t71 -53t40 -82t12.5 -106
t-12.5 -106t-40 -82t-71 -53t-106.5 -19zM220 620q-9 0 -16.5 -1.5t-16 -6t-20 -14.5t-27.5 -26l-29 23q29 48 55 67.5t52 19.5q18 0 36 -8t35 -18t32 -18t28 -8q14 0 29.5 5.5t35.5 35.5l25 -28q-34 -67 -79 -73q-8 -1 -21 2q-14 3 -29 11t-31 16t-31 14.5t-28 6.5z" />
    <glyph glyph-name="odieresis" unicode="&#xf6;" 
d="M275 435q-39 0 -65 -14t-41.5 -39t-22 -59t-6.5 -73t6.5 -73t22 -59t41.5 -39t65 -14t65 14t41.5 39t22 59t6.5 73t-6.5 73t-22 59t-41.5 39t-65 14zM275 -10q-63 0 -107 19t-71 53t-39.5 82t-12.5 106t12.5 106t39.5 82t71 53t107 19t106.5 -19t71 -53t40 -82t12.5 -106
t-12.5 -106t-40 -82t-71 -53t-106.5 -19zM190 700v-120h-80v120h80zM440 700v-120h-80v120h80z" />
    <glyph glyph-name="divide" unicode="&#xf7;" horiz-adv-x="500" 
d="M445 292v-55h-390v55h390zM290 165v-120h-80v120h80zM290 485v-120h-80v120h80z" />
    <glyph glyph-name="oslash" unicode="&#xf8;" 
d="M275 -10q-51 0 -89 13.5t-65 37.5l-62 -72l-29 23l63 74q-26 35 -37 81t-11 103q0 58 12.5 106t39.5 82t71 53t107 19q51 0 89 -13.5t64 -38.5l62 73l30 -23l-64 -75q26 -34 37.5 -80t11.5 -103q0 -58 -12.5 -106t-40 -82t-71 -53t-106.5 -19zM275 65q39 0 65 14t41.5 39
t22 59t6.5 73q0 29 -5 56t-16 48l-212 -248q16 -20 39.5 -30.5t58.5 -10.5zM275 435q-39 0 -65 -14t-41.5 -39t-22 -59t-6.5 -73q0 -29 4.5 -56t15.5 -49l212 248q-16 20 -39.5 31t-57.5 11z" />
    <glyph glyph-name="ugrave" unicode="&#xf9;" horiz-adv-x="590" 
d="M20 500h155v-325q0 -49 22.5 -79.5t77.5 -30.5q21 0 41.5 6t38.5 14.5t33.5 18.5t26.5 18v303h-80v75h170v-425h65v-75h-155v70h-2q-36 -36 -80 -58t-98 -22q-75 0 -112.5 43t-37.5 122v270h-65v75zM176 700h78l60 -140h-50z" />
    <glyph glyph-name="uacute" unicode="&#xfa;" horiz-adv-x="590" 
d="M20 500h155v-325q0 -49 22.5 -79.5t77.5 -30.5q21 0 41.5 6t38.5 14.5t33.5 18.5t26.5 18v303h-80v75h170v-425h65v-75h-155v70h-2q-36 -36 -80 -58t-98 -22q-75 0 -112.5 43t-37.5 122v270h-65v75zM311 560h-50l60 140h77z" />
    <glyph glyph-name="ucircumflex" unicode="&#xfb;" horiz-adv-x="590" 
d="M20 500h155v-325q0 -49 22.5 -79.5t77.5 -30.5q21 0 41.5 6t38.5 14.5t33.5 18.5t26.5 18v303h-80v75h170v-425h65v-75h-155v70h-2q-36 -36 -80 -58t-98 -22q-75 0 -112.5 43t-37.5 122v270h-65v75zM201 560h-50l105 140h59l106 -140h-50l-86 89z" />
    <glyph glyph-name="udieresis" unicode="&#xfc;" horiz-adv-x="590" 
d="M20 500h155v-325q0 -49 22.5 -79.5t77.5 -30.5q21 0 41.5 6t38.5 14.5t33.5 18.5t26.5 18v303h-80v75h170v-425h65v-75h-155v70h-2q-36 -36 -80 -58t-98 -22q-75 0 -112.5 43t-37.5 122v270h-65v75zM200 700v-120h-80v120h80zM450 700v-120h-80v120h80z" />
    <glyph glyph-name="yacute" unicode="&#xfd;" horiz-adv-x="580" 
d="M355 500h204v-75h-43l-180 -453q-16 -40 -35.5 -73.5t-44 -57.5t-54.5 -37.5t-66 -13.5q-17 0 -37 2t-36 5l8 73q12 -3 24.5 -4t21.5 -1q25 0 45.5 11t36 28.5t27 39.5t19.5 44l-180 437h-45v75h218v-75h-73l137 -348h2l122 348h-71v75zM325 560h-50l60 140h77z" />
    <glyph glyph-name="thorn" unicode="&#xfe;" horiz-adv-x="560" 
d="M20 700h155v-250h2q26 26 67 43t86 17q52 0 87.5 -20t57.5 -55.5t31 -83t9 -101.5t-10 -101.5t-32.5 -83t-59 -55.5t-88.5 -20q-43 0 -82.5 15.5t-65.5 41.5h-2v-172h65v-75h-220v75h65v750h-65v75zM420 250q0 37 -6 71t-20 59t-38.5 40t-60.5 15q-42 0 -73.5 -15
t-46.5 -28v-285q15 -12 46.5 -27t73.5 -15q36 0 60.5 15t38.5 40t20 58.5t6 71.5z" />
    <glyph glyph-name="ydieresis" unicode="&#xff;" horiz-adv-x="580" 
d="M355 500h204v-75h-43l-180 -453q-16 -40 -35.5 -73.5t-44 -57.5t-54.5 -37.5t-66 -13.5q-17 0 -37 2t-36 5l8 73q12 -3 24.5 -4t21.5 -1q25 0 45.5 11t36 28.5t27 39.5t19.5 44l-180 437h-45v75h218v-75h-73l137 -348h2l122 348h-71v75zM214 700v-120h-80v120h80z
M464 700v-120h-80v120h80z" />
    <glyph glyph-name="quotedbl" unicode="&#x22;" horiz-adv-x="400" 
d="M145 680l-10 -150h-70l-10 150h90zM345 680l-10 -150h-70l-10 150h90z" />
    <glyph glyph-name="exclam" unicode="!" horiz-adv-x="200" 
d="M145 130v-130h-90v130h90zM145 700l-5 -480h-80l-5 480h90z" />
    </font>
</defs>
</svg>
