<?xml version="1.0" encoding="utf-8"?>
<!-- Generator: Adobe Illustrator 16.0.2, SVG Export Plug-In . SVG Version: 6.00 Build 0)  -->
<!DOCTYPE svg PUBLIC "-//W3C//DTD SVG 1.1//EN" "http://www.w3.org/Graphics/SVG/1.1/DTD/svg11.dtd">
<svg version="1.1" id="Layer_1" xmlns="http://www.w3.org/2000/svg" xmlns:xlink="http://www.w3.org/1999/xlink" x="0px" y="0px"
	 width="50px" height="53.92px" viewBox="0 0 50 53.92" enable-background="new 0 0 50 53.92" xml:space="preserve">
<path d="M0,0v50l3.12,3.92L6.24,50l3.13,3.92L12.49,50l3.13,3.92L18.74,50l3.13,3.92L24.99,50l3.13,3.92L31.24,50l3.13,3.92
	L37.49,50l3.13,3.92L43.74,50l3.119,3.92L49.98,50H50V0H0z M27.539,24.858v17.019h-6.794V24.924H17.21v-5.771h3.535
	c0,0,0-0.825,0-4.539c0-4.265,2.284-6.492,7.335-6.492c0.834,0,4.71,0,4.71,0v5.914c0,0-2.634,0-3.678,0
	c-1.297,0-1.573,0.531-1.573,1.876c0,1.118,0,3.241,0,3.241h5.251l-0.501,5.705H27.539z"/>
</svg>
