<?xml version="1.0" encoding="utf-8"?>
<!-- Generator: Adobe Illustrator 16.0.2, SVG Export Plug-In . SVG Version: 6.00 Build 0)  -->
<!DOCTYPE svg PUBLIC "-//W3C//DTD SVG 1.1//EN" "http://www.w3.org/Graphics/SVG/1.1/DTD/svg11.dtd">
<svg version="1.1" id="Layer_1" xmlns="http://www.w3.org/2000/svg" xmlns:xlink="http://www.w3.org/1999/xlink" x="0px" y="0px"
	 width="50px" height="53.93px" viewBox="0 0 50 53.93" enable-background="new 0 0 50 53.93" xml:space="preserve">
<g>
	<path id="instagram-7-icon" d="M34.431,25c0,5.212-4.219,9.43-9.431,9.43s-9.43-4.218-9.43-9.43c0-0.817,0.111-1.608,0.307-2.36
		H13.21v12.97c0,0.65,0.529,1.181,1.181,1.181h21.221c0.65,0,1.18-0.529,1.18-1.181V22.64h-2.665
		C34.318,23.392,34.431,24.183,34.431,25z M35.61,13.21h-3.53c-0.65,0-1.181,0.53-1.181,1.18v3.531c0,0.65,0.521,1.179,1.181,1.179
		h3.53c0.65,0,1.181-0.529,1.181-1.179V14.39C36.79,13.74,36.261,13.21,35.61,13.21z M25,30.9c3.252,0,5.899-2.647,5.899-5.899
		S28.252,19.1,25,19.1s-5.9,2.64-5.9,5.9C19.1,28.252,21.748,30.9,25,30.9z M34.431,25c0,5.212-4.219,9.43-9.431,9.43
		s-9.43-4.218-9.43-9.43c0-0.817,0.111-1.608,0.307-2.36H13.21v12.97c0,0.65,0.529,1.181,1.181,1.181h21.221
		c0.65,0,1.18-0.529,1.18-1.181V22.64h-2.665C34.318,23.392,34.431,24.183,34.431,25z M35.61,13.21h-3.53
		c-0.65,0-1.181,0.53-1.181,1.18v3.531c0,0.65,0.521,1.179,1.181,1.179h3.53c0.65,0,1.181-0.529,1.181-1.179V14.39
		C36.79,13.74,36.261,13.21,35.61,13.21z M25,30.9c3.252,0,5.899-2.647,5.899-5.899S28.252,19.1,25,19.1s-5.9,2.64-5.9,5.9
		C19.1,28.252,21.748,30.9,25,30.9z M35.61,13.21h-3.53c-0.65,0-1.181,0.53-1.181,1.18v3.531c0,0.65,0.521,1.179,1.181,1.179h3.53
		c0.65,0,1.181-0.529,1.181-1.179V14.39C36.79,13.74,36.261,13.21,35.61,13.21z M25,19.1c-3.252,0-5.9,2.64-5.9,5.9
		c0,3.252,2.648,5.899,5.9,5.899s5.899-2.647,5.899-5.899S28.252,19.1,25,19.1z M34.124,22.64c0.194,0.752,0.307,1.542,0.307,2.36
		c0,5.212-4.219,9.43-9.431,9.43s-9.43-4.218-9.43-9.43c0-0.817,0.111-1.608,0.307-2.36H13.21v12.97c0,0.65,0.529,1.181,1.181,1.181
		h21.221c0.65,0,1.18-0.529,1.18-1.181V22.64H34.124z"/>
	<path d="M0,0v50l3.12,3.93L6.24,50l3.12,3.93L12.48,50l3.119,3.93L18.72,50l3.11,3.93L24.95,50l3.12,3.93L31.189,50l3.119,3.93
		L37.43,50l3.12,3.93L43.67,50l3.12,3.93L50,50l0,0V0H0z M13.21,40.33c-1.951,0-3.54-1.589-3.54-3.54V13.21
		c0-1.96,1.589-3.54,3.54-3.54h23.58c1.96,0,3.54,1.58,3.54,3.54V36.79c0,1.951-1.58,3.54-3.54,3.54H13.21z"/>
</g>
</svg>
