<?xml version="1.0" encoding="utf-8"?>
<!-- Generator: Adobe Illustrator 16.0.2, SVG Export Plug-In . SVG Version: 6.00 Build 0)  -->
<!DOCTYPE svg PUBLIC "-//W3C//DTD SVG 1.1//EN" "http://www.w3.org/Graphics/SVG/1.1/DTD/svg11.dtd">
<svg version="1.1" id="Layer_1" xmlns="http://www.w3.org/2000/svg" xmlns:xlink="http://www.w3.org/1999/xlink" x="0px" y="0px"
	 width="50px" height="53.92px" viewBox="0 0 50 53.92" enable-background="new 0 0 50 53.92" xml:space="preserve">
<path id="google-plus-square-icon" d="M23.426,17.569c-0.421-3.191-2.501-5.809-4.93-5.88c-2.429-0.072-4.061,2.366-3.64,5.558
	c0.421,3.191,2.734,5.423,5.164,5.495S23.847,20.76,23.426,17.569z M19.518,29.275c-3.622-0.045-6.687,2.286-6.687,4.983
	c0,2.753,2.617,5.047,6.239,5.047c4.625,0,6.857-2.149,6.857-4.902C25.927,31.776,23.534,29.275,19.518,29.275z M20.02,22.741
	c2.429,0.072,3.827-1.981,3.406-5.172c-0.421-3.191-2.501-5.809-4.93-5.88c-2.429-0.072-4.061,2.366-3.64,5.558
	C15.278,20.438,17.591,22.669,20.02,22.741z M19.518,29.275c-3.622-0.045-6.687,2.286-6.687,4.983c0,2.753,2.617,5.047,6.239,5.047
	c4.625,0,6.857-2.149,6.857-4.902C25.927,31.776,23.534,29.275,19.518,29.275z M20.02,22.741c2.429,0.072,3.827-1.981,3.406-5.172
	c-0.421-3.191-2.501-5.809-4.93-5.88c-2.429-0.072-4.061,2.366-3.64,5.558C15.278,20.438,17.591,22.669,20.02,22.741z
	 M19.518,29.275c-3.622-0.045-6.687,2.286-6.687,4.983c0,2.753,2.617,5.047,6.239,5.047c4.625,0,6.857-2.149,6.857-4.902
	C25.927,31.776,23.534,29.275,19.518,29.275z"/>
<path d="M0,0v50h0.01l3.11,3.92L6.25,50l3.12,3.92L12.5,50l3.12,3.92L18.75,50l3.12,3.92L25,50l3.12,3.92L31.25,50l3.13,3.92
	L37.5,50l3.13,3.92L43.75,50l3.12,3.92L49.99,50H50V0H0z M19.042,40.992c-5.235,0-9.609-2.26-9.609-6.061
	c0-2.931,1.855-6.74,10.532-6.74c-1.282-1.049-1.604-2.52-0.815-4.105c-5.083,0-7.682-2.985-7.682-6.777
	c0-3.711,2.761-7.09,8.39-7.09c1.417,0,9.018,0,9.018,0l-2.017,2.115h-2.367c1.667,0.959,2.554,2.931,2.554,5.101
	c0,1.99-1.094,3.603-2.662,4.823c-2.778,2.142-2.07,3.342,0.843,5.467c2.877,2.151,3.818,3.81,3.818,6.355
	C29.046,37.199,26.205,40.992,19.042,40.992z M34.568,21.038v-4.159h-4.16v-2.08h4.161V10.64h2.078v4.159h4.16v2.08h-4.16v4.159
	H34.568z"/>
</svg>
