<?xml version="1.0" encoding="utf-8"?>
<!-- Generator: Adobe Illustrator 16.0.2, SVG Export Plug-In . SVG Version: 6.00 Build 0)  -->
<!DOCTYPE svg PUBLIC "-//W3C//DTD SVG 1.1//EN" "http://www.w3.org/Graphics/SVG/1.1/DTD/svg11.dtd">
<svg version="1.1" id="Layer_1" xmlns="http://www.w3.org/2000/svg" xmlns:xlink="http://www.w3.org/1999/xlink" x="0px" y="0px"
	 width="50px" height="53.92px" viewBox="0 0 50 53.92" enable-background="new 0 0 50 53.92" xml:space="preserve">
<path id="youtube-new-2-icon" d="M21.52,20.12v9.77L30.88,25L21.52,20.12z M21.52,20.12v9.77L30.88,25L21.52,20.12z M21.52,20.12
	v9.77L30.88,25L21.52,20.12z"/>
<path d="M0,0v50h0.01l3.11,3.92L6.25,50l3.12,3.92L12.5,50l3.12,3.92L18.75,50l3.12,3.92L25,50l3.12,3.92L31.25,50l3.13,3.92
	L37.5,50l3.13,3.92L43.75,50l3.12,3.92L49.99,50H50V0H0z M36.1,37.01c-5.239,0.36-16.95,0.36-22.2,0
	c-3.69-0.25-5.54-0.89-6.09-5.569c-0.41-3.48-0.41-9.411,0-12.88c0.55-4.68,2.4-5.32,6.09-5.57c5.25-0.36,16.96-0.36,22.2,0
	c3.69,0.25,5.54,0.89,6.091,5.57c0.409,3.48,0.409,9.41,0,12.88C41.64,36.12,39.79,36.76,36.1,37.01z"/>
</svg>
